<svg width="160" height="105" viewBox="0 0 160 105" fill="none" xmlns="http://www.w3.org/2000/svg">
<g clip-path="url(#clip0_591_141)">
<path d="M80.1948 93.8584C88.7763 95.8596 97.1233 97.3371 104.988 98.2871C97.6021 102.338 89.123 104.643 80.105 104.643C71.0996 104.643 62.6309 102.345 55.2524 98.3047C63.1607 97.3554 71.5588 95.8723 80.1948 93.8584ZM35.2261 78.748C39.1839 80.5667 43.3795 82.3266 47.7749 84.0029C44.7577 84.2658 41.861 84.4349 39.104 84.5127C37.6885 82.684 36.3906 80.7595 35.2261 78.748ZM124.916 78.8633C123.769 80.8313 122.496 82.7156 121.109 84.5078C118.405 84.4279 115.567 84.2602 112.614 84.0029C116.918 82.3616 121.03 80.6415 124.916 78.8633ZM80.105 1C108.725 1.00015 131.926 24.2013 131.926 52.8213C131.926 54.7463 131.82 56.647 131.616 58.5176C119.955 65.4231 103.523 72.2234 84.5737 77.3008C83.107 77.6938 81.6466 78.069 80.1948 78.4297C78.7432 78.069 77.2825 77.6937 75.8159 77.3008C56.7621 72.1953 40.252 65.3492 28.5806 58.4043C28.3841 56.5703 28.2837 54.7074 28.2837 52.8213C28.2838 24.2012 51.4849 1.00006 80.105 1ZM78.8667 21.8721C77.7624 21.8721 76.867 22.7678 76.8667 23.8721V49.5791C76.8667 50.2963 76.4823 50.9592 75.8599 51.3154L62.4214 59.0068C61.4579 59.5584 61.1276 60.7895 61.686 61.749L63.4517 64.7803C64.0048 65.73 65.2207 66.0552 66.1743 65.5088L83.4185 55.6279C84.0401 55.2715 84.4233 54.6092 84.4233 53.8926V23.8721C84.423 22.7678 83.5277 21.8721 82.4233 21.8721H78.8667Z" fill="#878787"/>
<path d="M80.1948 93.8584C88.7763 95.8596 97.1233 97.3371 104.988 98.2871C97.6021 102.338 89.123 104.643 80.105 104.643C71.0996 104.643 62.6309 102.345 55.2524 98.3047C63.1607 97.3554 71.5588 95.8723 80.1948 93.8584ZM35.2261 78.748C39.1839 80.5667 43.3795 82.3266 47.7749 84.0029C44.7577 84.2658 41.861 84.4349 39.104 84.5127C37.6885 82.684 36.3906 80.7595 35.2261 78.748ZM124.916 78.8633C123.769 80.8313 122.496 82.7156 121.109 84.5078C118.405 84.4279 115.567 84.2602 112.614 84.0029C116.918 82.3616 121.03 80.6415 124.916 78.8633ZM80.105 1C108.725 1.00015 131.926 24.2013 131.926 52.8213C131.926 54.7463 131.82 56.647 131.616 58.5176C119.955 65.4231 103.523 72.2234 84.5737 77.3008C83.107 77.6938 81.6466 78.069 80.1948 78.4297C78.7432 78.069 77.2825 77.6937 75.8159 77.3008C56.7621 72.1953 40.252 65.3492 28.5806 58.4043C28.3841 56.5703 28.2837 54.7074 28.2837 52.8213C28.2838 24.2012 51.4849 1.00006 80.105 1ZM78.8667 21.8721C77.7624 21.8721 76.867 22.7678 76.8667 23.8721V49.5791C76.8667 50.2963 76.4823 50.9592 75.8599 51.3154L62.4214 59.0068C61.4579 59.5584 61.1276 60.7895 61.686 61.749L63.4517 64.7803C64.0048 65.73 65.2207 66.0552 66.1743 65.5088L83.4185 55.6279C84.0401 55.2715 84.4233 54.6092 84.4233 53.8926V23.8721C84.423 22.7678 83.5277 21.8721 82.4233 21.8721H78.8667Z" fill="#878787"/>
<path d="M149.828 64.4095C151.548 65.9681 153.044 67.5308 154.286 69.0863C157.562 73.1883 159.408 77.6819 158.233 82.0668L155.819 81.4203L153.404 80.7728C153.974 78.645 153.248 75.7993 150.379 72.2064C149.152 70.6707 147.592 69.078 145.717 67.4486C147.153 66.453 148.525 65.4379 149.828 64.4095ZM10.4587 64.4105C11.7608 65.4386 13.1328 66.4532 14.5681 67.4486C12.6941 69.0778 11.1343 70.6708 9.90791 72.2064C7.03861 75.7992 6.31276 78.645 6.88251 80.7728L4.46748 81.4213L2.05341 82.0668C0.878839 77.6817 2.72555 73.1884 6.00166 69.0863C7.24373 67.5311 8.73852 65.9688 10.4587 64.4105ZM137.045 55.2084C136.987 55.2483 136.928 55.2875 136.87 55.3275C136.873 55.255 136.878 55.1824 136.881 55.1097C136.935 55.1424 136.99 55.1757 137.045 55.2084ZM23.3356 55.2728C23.304 55.251 23.2724 55.2292 23.2409 55.2074C23.2707 55.1896 23.3009 55.1725 23.3308 55.1547C23.3323 55.1941 23.334 55.2334 23.3356 55.2728ZM131.564 27.7455C138.516 28.1846 144.516 29.3276 149.071 31.2562C153.587 33.1685 157.117 36.0558 158.233 40.2191L156.923 40.5707L155.819 40.8656L153.403 41.5131C152.862 39.4947 150.993 37.4997 147.123 35.8607C143.698 34.4105 139.039 33.3942 133.333 32.8939C132.67 31.1255 131.922 29.3989 131.093 27.7191C131.251 27.7283 131.408 27.7356 131.564 27.7455ZM29.113 27.723C28.2842 29.4037 27.5362 31.1313 26.8737 32.9008C21.2042 33.4035 16.5734 34.4174 13.1647 35.8607C9.2939 37.4998 7.42362 39.4944 6.88251 41.5131L4.46845 40.8666L4.14033 40.7787L2.05341 40.2191C3.16948 36.0558 6.69938 33.1685 11.2155 31.2562C15.7705 29.3276 21.7711 28.1846 28.7233 27.7455C28.8527 27.7373 28.9828 27.7307 29.113 27.723Z" fill="#878787"/>
<path d="M101.848 87.9796C111.974 89.4276 121.237 89.9791 129.084 89.6623C136.361 89.3685 142.275 88.3346 146.5 86.6803C150.782 85.0032 152.833 82.9011 153.403 80.7732L158.233 82.0673C157.058 86.4526 153.212 89.421 148.323 91.3356C143.377 93.2728 136.846 94.3522 129.285 94.6575C118.511 95.0924 105.345 93.9633 91.0609 91.246C94.74 90.2188 98.3411 89.1274 101.848 87.9796ZM6.88328 41.5129C6.3131 43.6409 7.03901 46.487 9.90887 50.0804C12.7402 53.6254 17.345 57.4782 23.5003 61.3712C34.8236 68.5326 50.9723 75.5673 69.6592 80.9732C65.9754 81.7135 62.3775 82.3427 58.8886 82.8623C43.7963 77.8414 30.6538 71.8108 20.828 65.5965C14.4328 61.5517 9.31648 57.3518 6.00137 53.201C2.72508 49.0986 0.878668 44.6041 2.0537 40.2188L6.88328 41.5129Z" fill="#878787"/>
<path d="M155.818 40.8664C159.309 53.8932 128.257 73.5318 86.463 84.7306C44.6688 95.9293 7.95829 94.4474 4.46777 81.4206" stroke="#878787" stroke-width="5"/>
</g>
<defs>
<clipPath id="clip0_591_141">
<rect width="160" height="105" fill="white"/>
</clipPath>
</defs>
</svg>
