<svg width="161" height="161" viewBox="0 0 161 161" fill="none" xmlns="http://www.w3.org/2000/svg">
<path d="M2.5 89.5L2.5 71.5C2.5 71.2239 2.72386 71 3 71L14.7646 71C16.4592 71 17.8837 69.7937 18.2061 68.1699C19.8632 59.8164 23.1727 52.0562 27.7812 45.2441C28.7128 43.8671 28.5623 41.998 27.3594 40.7949L18.9814 32.417C18.7863 32.2218 18.7865 31.9052 18.9814 31.71L31.71 18.9814C31.9052 18.7864 32.2218 18.7863 32.417 18.9814L40.8935 27.459C42.0863 28.6517 43.9361 28.8101 45.3115 27.9014C52.1152 23.4051 59.8405 20.194 68.1426 18.6133C69.7788 18.3018 70.9999 16.8729 71 15.168L71 3C71 2.72385 71.2238 2.5 71.5 2.5L89.5 2.5C89.7761 2.5 90 2.72385 90 3L90 15.3662C90 17.0505 91.1922 18.469 92.8037 18.8018C100.722 20.4361 108.098 23.5563 114.627 27.8603L115.256 28.2803C116.633 29.2119 118.502 29.0623 119.705 27.8594L128.176 19.3887C128.371 19.1937 128.688 19.1936 128.883 19.3887L141.61 32.1172C141.806 32.3124 141.806 32.629 141.61 32.8242L133.041 41.3935L132.83 41.625C131.9 42.7367 131.762 44.2972 132.44 45.5488L132.599 45.8115C137.009 52.4858 140.183 60.0474 141.794 68.1699C142.116 69.7938 143.541 71 145.235 71L158 71C158.276 71 158.5 71.2238 158.5 71.5L158.5 89.5C158.5 89.7761 158.276 90 158 90L145.235 90C143.541 90 142.116 91.2062 141.794 92.8301C140.183 100.952 137.009 108.514 132.599 115.188C131.69 116.564 131.848 118.414 133.041 119.606L142.019 128.583C142.214 128.778 142.214 129.095 142.019 129.29L129.29 142.019C129.095 142.213 128.778 142.214 128.583 142.019L119.705 133.141C118.502 131.938 116.633 131.788 115.256 132.72L115.256 132.719C108.781 137.099 101.451 140.306 93.5684 142.036L92.8037 142.198L92.5068 142.273C91.0479 142.71 90 144.055 90 145.634L90 158C90 158.276 89.7761 158.5 89.5 158.5L71.5 158.5C71.2239 158.5 71 158.276 71 158L71 145.832C70.9999 144.127 69.7787 142.698 68.1426 142.387C59.8404 140.806 52.1152 137.595 45.3115 133.099C43.9361 132.19 42.0863 132.348 40.8936 133.541L32.417 142.019C32.2219 142.214 31.9052 142.213 31.71 142.019L18.9814 129.29C18.7864 129.095 18.7863 128.778 18.9814 128.583L27.3594 120.205C28.5624 119.002 28.7119 117.133 27.7803 115.756C23.1718 108.944 19.8632 101.184 18.2061 92.8301C17.8837 91.2063 16.4592 90 14.7646 90L3 90C2.72385 90 2.5 89.7761 2.5 89.5ZM80 42.5C100.987 42.5 118 59.5132 118 80.5C118 101.487 100.987 118.5 80 118.5C59.0132 118.5 42 101.487 42 80.5C42 59.5132 59.0132 42.5 80 42.5ZM80 37.5C56.2518 37.5 37 56.7518 37 80.5C37 104.248 56.2518 123.5 80 123.5C103.748 123.5 123 104.248 123 80.5C123 56.7518 103.748 37.5 80 37.5Z" stroke="#878787" stroke-width="5"/>
</svg>
