<svg width="152" height="152" viewBox="0 0 152 152" fill="none" xmlns="http://www.w3.org/2000/svg">
<circle cx="76" cy="76" r="74" stroke="black" stroke-width="4"/>
<path d="M76 19C76.6694 19 77.3361 19.0123 78 19.0352V34C78 56.0914 95.9086 74 118 74H132.965C132.988 74.6639 133 75.3306 133 76C133 76.6694 132.988 77.3361 132.965 78H118C95.9086 78 78 95.9086 78 118V132.964C77.3361 132.987 76.6694 133 76 133C75.3306 133 74.6639 132.987 74 132.964V118C74 95.9086 56.0914 78 34 78H19.0352C19.0123 77.3361 19 76.6694 19 76C19 75.3306 19.0123 74.6639 19.0352 74H34C56.0914 74 74 56.0914 74 34V19.0352C74.6639 19.0123 75.3306 19 76 19Z" fill="black"/>
</svg>
