<svg width="38" height="38" viewBox="0 0 38 38" fill="none" xmlns="http://www.w3.org/2000/svg">
<g clip-path="url(#clip0_437_3240)">
<mask id="mask0_437_3240" style="mask-type:luminance" maskUnits="userSpaceOnUse" x="0" y="0" width="38" height="38">
<path d="M19 0C29.4934 0 38 8.50659 38 19C38 29.4934 29.4934 38 19 38C8.50659 38 0 29.4934 0 19C0 8.50659 8.50659 0 19 0Z" fill="white"/>
</mask>
<g mask="url(#mask0_437_3240)">
<path d="M19 0V1C28.9411 1 37 9.05888 37 19H38H39C39 7.95431 30.0457 -1 19 -1V0ZM38 19H37C37 28.9411 28.9411 37 19 37V38V39C30.0457 39 39 30.0457 39 19H38ZM19 38V37C9.05888 37 1 28.9411 1 19H0H-1C-1 30.0457 7.95431 39 19 39V38ZM0 19H1C1 9.05888 9.05888 1 19 1V0V-1C7.95431 -1 -1 7.95431 -1 19H0Z" fill="black"/>
</g>
<path d="M19.2162 7.52554C25.4133 7.49461 30.2792 12.4182 30.1947 18.6428C30.0736 24.8201 25.2648 29.38 19.2484 29.3947L19.2406 29.3957H19.2338C17.0521 29.4648 15.6507 28.6471 14.599 27.8556L14.1947 27.551L13.8949 27.9601C13.7506 28.157 13.4515 28.4219 13.0385 28.6847C12.6333 28.9425 12.155 29.1752 11.6859 29.3244C11.2092 29.476 10.7844 29.5274 10.4672 29.4719C10.1775 29.421 9.99387 29.2884 9.88999 29.0353C9.85907 28.9599 9.84537 28.8365 9.84214 28.5392C9.8392 28.2695 9.84222 27.9052 9.78355 27.4738C9.61746 26.2533 9.30808 25.1726 9.02378 24.1281C8.73753 23.0764 8.4736 22.0519 8.3646 20.8879C8.30833 20.2869 8.25486 19.7036 8.26694 19.1203V19.1066L8.26597 19.092C8.07812 13.8926 11.5745 7.90444 19.2162 7.52554Z" stroke="black"/>
<path d="M19.2628 13.1436C22.2335 13.1436 24.6417 15.5518 24.6417 18.5225C24.6417 21.4786 22.2483 23.7706 19.2628 23.7706C18.2232 23.7705 17.2406 23.3933 16.3917 22.8663L16.0499 22.6544L15.7696 22.9415C15.4387 23.2809 15.2468 23.4427 15.0274 23.6221C14.8656 23.7546 14.7548 23.8213 14.6847 23.8516C14.6792 23.854 14.6736 23.8547 14.669 23.8565C14.6401 23.8192 14.6008 23.7572 14.5499 23.6553C14.3037 23.1629 14.0391 22.1948 13.9483 21.0938C13.8573 19.9887 13.887 19.5602 13.9483 18.5528C14.1326 15.5288 16.3255 13.1439 19.2628 13.1436Z" stroke="black"/>
</g>
<defs>
<clipPath id="clip0_437_3240">
<rect width="38" height="38" fill="white"/>
</clipPath>
</defs>
</svg>
