<svg width="38" height="38" viewBox="0 0 38 38" fill="none" xmlns="http://www.w3.org/2000/svg">
<mask id="path-1-inside-1_437_3239" fill="white">
<path d="M19 0C29.4934 0 38 8.50659 38 19C37.9999 29.4933 29.4934 38 19 38C8.50687 37.9997 9.48362e-05 29.4932 0 19C0 8.50675 8.50681 0.000255654 19 0ZM28.46 12.4346C28.3214 11.2694 26.9085 11.5251 26.1221 11.7871C22.0805 13.325 18.0791 14.9772 14.0938 16.6582C11.7772 17.6845 9.29727 18.7063 7.07617 19.9297C5.9947 20.7219 7.83391 21.245 9.08887 21.7646C10.4886 22.1948 12.1211 22.8539 13.5215 22.083C16.2631 20.5081 18.8 18.6064 21.4004 16.8145C21.8739 16.5114 23.3078 15.5239 22.8223 16.6963C21.0221 18.6648 19.0078 20.2551 17.1084 22.127C16.4424 22.6681 15.7505 23.7568 16.4961 24.5146C18.7729 26.1085 21.0971 27.6513 23.4033 29.209C24.363 29.9752 25.8632 29.3555 26.0742 28.1582C26.6865 24.564 27.3142 20.9703 27.8574 17.3643C28.0715 15.7244 28.3841 14.0841 28.46 12.4346Z"/>
</mask>
<path d="M19 0V-1H19L19 0ZM38 19L39 19V19H38ZM19 38L19 39H19V38ZM0 19H-1V19L0 19ZM28.46 12.4346L29.4589 12.4805L29.4627 12.3983L29.453 12.3165L28.46 12.4346ZM26.1221 11.7871L25.806 10.8384L25.7861 10.845L25.7664 10.8525L26.1221 11.7871ZM14.0938 16.6582L13.7051 15.7368L13.6969 15.7403L13.6887 15.7439L14.0938 16.6582ZM7.07617 19.9297L6.59371 19.0538L6.53724 19.0849L6.48524 19.123L7.07617 19.9297ZM9.08887 21.7646L8.70632 22.6886L8.74996 22.7067L8.79512 22.7205L9.08887 21.7646ZM13.5215 22.083L14.0037 22.959L14.0117 22.9547L14.0196 22.9501L13.5215 22.083ZM21.4004 16.8145L20.8614 15.9722L20.847 15.9814L20.833 15.991L21.4004 16.8145ZM22.8223 16.6963L23.5602 17.3711L23.6789 17.2414L23.7462 17.0789L22.8223 16.6963ZM17.1084 22.127L17.739 22.9031L17.7762 22.8729L17.8103 22.8392L17.1084 22.127ZM16.4961 24.5146L15.7832 25.216L15.8475 25.2813L15.9226 25.3339L16.4961 24.5146ZM23.4033 29.209L24.0273 28.4275L23.9961 28.4026L23.963 28.3803L23.4033 29.209ZM26.0742 28.1582L27.0591 28.3318L27.06 28.3262L26.0742 28.1582ZM27.8574 17.3643L28.8463 17.5132L28.8477 17.5035L28.849 17.4937L27.8574 17.3643ZM19 0V1C28.9411 1 37 9.05888 37 19H38H39C39 7.95431 30.0457 -1 19 -1V0ZM38 19L37 19C36.9999 28.9411 28.9411 37 19 37V38V39C30.0456 39 38.9999 30.0456 39 19L38 19ZM19 38L19 37C9.05914 36.9998 1.00009 28.9409 1 19L0 19L-1 19C-0.9999 30.0455 7.95459 38.9997 19 39L19 38ZM0 19H1C1 9.05906 9.05907 1.00024 19 1L19 0L19 -1C7.95454 -0.999731 -1 7.95444 -1 19H0ZM28.46 12.4346L29.453 12.3165C29.3923 11.8062 29.1727 11.3556 28.784 11.0343C28.4177 10.7315 27.9914 10.618 27.6379 10.5811C26.9541 10.5097 26.2405 10.6936 25.806 10.8384L26.1221 11.7871L26.4381 12.7358C26.5987 12.6824 26.7852 12.6314 26.9708 12.5991C27.1613 12.566 27.3177 12.5585 27.4301 12.5703C27.5454 12.5823 27.5475 12.607 27.5096 12.5757C27.4494 12.526 27.4584 12.4804 27.467 12.5526L28.46 12.4346ZM26.1221 11.7871L25.7664 10.8525C21.7083 12.3966 17.6942 14.0542 13.7051 15.7368L14.0938 16.6582L14.4824 17.5796C18.464 15.9002 22.4527 14.2533 26.4777 12.7217L26.1221 11.7871ZM14.0938 16.6582L13.6887 15.7439C11.4073 16.7546 8.86454 17.803 6.59371 19.0538L7.07617 19.9297L7.55864 20.8056C9.73 19.6096 12.147 18.6144 14.4988 17.5725L14.0938 16.6582ZM7.07617 19.9297L6.48524 19.123C6.11354 19.3952 5.60187 19.936 5.78489 20.7082C5.86119 21.0301 6.04033 21.2662 6.19318 21.4219C6.34828 21.5799 6.52478 21.7046 6.68423 21.8023C7.00036 21.9958 7.37996 22.1603 7.71741 22.297C8.11547 22.4582 8.36891 22.5489 8.70632 22.6886L9.08887 21.7646L9.47142 20.8407C9.18135 20.7206 8.73427 20.551 8.46833 20.4433C8.14176 20.311 7.89385 20.1978 7.72848 20.0965C7.6472 20.0468 7.61946 20.0198 7.62051 20.0209C7.62284 20.0233 7.64016 20.0411 7.66167 20.0759C7.68375 20.1117 7.71253 20.1691 7.73097 20.2469C7.83409 20.682 7.49807 20.8602 7.6671 20.7364L7.07617 19.9297ZM9.08887 21.7646L8.79512 22.7205C9.43101 22.9159 10.2974 23.2247 11.1458 23.3615C12.0255 23.5032 13.0356 23.4919 14.0037 22.959L13.5215 22.083L13.0393 21.207C12.6069 21.4449 12.1007 21.4895 11.4641 21.387C10.7962 21.2793 10.1465 21.0435 9.38262 20.8088L9.08887 21.7646ZM13.5215 22.083L14.0196 22.9501C16.8086 21.348 19.4114 19.3995 21.9678 17.6379L21.4004 16.8145L20.833 15.991C18.1886 17.8133 15.7176 19.6682 13.0234 21.2159L13.5215 22.083ZM21.4004 16.8145L21.9394 17.6568C22.0768 17.5688 22.2289 17.4673 22.4078 17.3592C22.5906 17.2487 22.7381 17.171 22.832 17.1346C22.8828 17.115 22.8638 17.129 22.7969 17.1348C22.7488 17.139 22.4604 17.1577 22.195 16.914C21.9118 16.6538 21.918 16.3417 21.9228 16.2777C21.9279 16.2088 21.9419 16.2085 21.8984 16.3137L22.8223 16.6963L23.7462 17.0789C23.824 16.891 23.8994 16.665 23.9172 16.427C23.9347 16.1937 23.9048 15.7688 23.548 15.4411C23.2091 15.1298 22.8097 15.1262 22.6243 15.1423C22.4202 15.16 22.2377 15.2201 22.1099 15.2695C21.6324 15.4544 21.0397 15.8581 20.8614 15.9722L21.4004 16.8145ZM22.8223 16.6963L22.0843 16.0215C21.2171 16.9698 20.2921 17.8338 19.3301 18.7077C18.3771 19.5735 17.3751 20.4601 16.4065 21.4147L17.1084 22.127L17.8103 22.8392C18.7411 21.922 19.6959 21.0775 20.675 20.1881C21.6451 19.3067 22.6273 18.3913 23.5602 17.3711L22.8223 16.6963ZM17.1084 22.127L16.4778 21.3508C16.0461 21.7016 15.5776 22.2459 15.3366 22.8883C15.0802 23.5719 15.0605 24.4813 15.7832 25.216L16.4961 24.5146L17.2089 23.8133C17.1858 23.7898 17.1787 23.776 17.1773 23.7732C17.176 23.7706 17.1752 23.7684 17.1744 23.763C17.1726 23.7495 17.17 23.6952 17.2092 23.5908C17.2942 23.3641 17.5046 23.0935 17.739 22.9031L17.1084 22.127ZM16.4961 24.5146L15.9226 25.3339C18.2085 26.9341 20.5463 28.486 22.8436 30.0377L23.4033 29.209L23.963 28.3803C21.6479 26.8165 19.3372 25.2829 17.0696 23.6954L16.4961 24.5146ZM23.4033 29.209L22.7794 29.9905C24.372 31.262 26.7253 30.2258 27.059 28.3318L26.0742 28.1582L25.0894 27.9846C25.0518 28.1982 24.8922 28.3937 24.6477 28.4916C24.4075 28.5878 24.1838 28.5525 24.0273 28.4275L23.4033 29.209ZM26.0742 28.1582L27.06 28.3262C27.6713 24.738 28.3012 21.1314 28.8463 17.5132L27.8574 17.3643L26.8686 17.2153C26.3271 20.8092 25.7018 24.3901 25.0884 27.9903L26.0742 28.1582ZM27.8574 17.3643L28.849 17.4937C29.0527 15.9332 29.3805 14.1847 29.4589 12.4805L28.46 12.4346L27.461 12.3886C27.3876 13.9835 27.0902 15.5156 26.8658 17.2348L27.8574 17.3643Z" fill="black" mask="url(#path-1-inside-1_437_3239)"/>
</svg>
