<svg width="18" height="18" viewBox="0 0 18 18" fill="none" xmlns="http://www.w3.org/2000/svg">
<path d="M12.56 5.0005C12.4208 5.0059 12.293 5.08689 12.2193 5.21648L8.27561 11.847L5.72073 9.42082C5.611 9.29573 5.4464 9.24894 5.29491 9.30113C5.14424 9.35243 5.03205 9.49281 5.00585 9.66379C4.97965 9.83568 5.0427 10.0085 5.17044 10.1119L8.09218 12.8908C8.1839 12.9763 8.30509 13.0141 8.42383 12.9952C8.54338 12.9754 8.64902 12.9007 8.71453 12.7901L12.9268 5.72042C13.0169 5.57554 13.0243 5.38836 12.9465 5.23537C12.8687 5.08329 12.7188 4.9924 12.56 5.0005Z" fill="#F8F8F8"/>
</svg>
