<svg width="38" height="38" viewBox="0 0 38 38" fill="none" xmlns="http://www.w3.org/2000/svg">
<mask id="path-1-inside-1_437_3310" fill="white">
<path d="M19 0C29.4934 0 38 8.50659 38 19C38 29.4934 29.4934 38 19 38C8.50659 38 0 29.4934 0 19C0 8.50659 8.50659 0 19 0Z"/>
</mask>
<path d="M19 0V1C28.9411 1 37 9.05888 37 19H38H39C39 7.95431 30.0457 -1 19 -1V0ZM38 19H37C37 28.9411 28.9411 37 19 37V38V39C30.0457 39 39 30.0457 39 19H38ZM19 38V37C9.05888 37 1 28.9411 1 19H0H-1C-1 30.0457 7.95431 39 19 39V38ZM0 19H1C1 9.05888 9.05888 1 19 1V0V-1C7.95431 -1 -1 7.95431 -1 19H0Z" fill="black" mask="url(#path-1-inside-1_437_3310)"/>
<mask id="path-3-inside-2_437_3310" fill="white">
<path d="M11.1836 13.7578C11.7523 13.7578 11.9707 13.9985 12.1895 14.6328C13.3051 17.8484 15.1648 20.6703 15.9307 20.6709C16.2151 20.6709 16.3467 20.5393 16.3467 19.8174V16.4922C16.2592 14.9614 15.4497 14.8297 15.4492 14.2832C15.4492 14.0207 15.6685 13.7578 16.0186 13.7578H19.5625C20.0438 13.7578 20.2187 14.0202 20.2188 14.5889V19.0742C20.2189 19.5552 20.4162 19.7305 20.5693 19.7305C20.8535 19.7303 21.0944 19.555 21.6191 19.0303C23.235 17.2179 24.393 14.4247 24.3975 14.4141C24.5506 14.0859 24.8131 13.7793 25.3818 13.7793H27.6348C28.313 13.7793 28.4666 14.13 28.3135 14.6113C28.0299 15.9182 25.2979 19.7813 25.2939 19.8174C25.0533 20.2111 24.9659 20.3867 25.2939 20.8242C25.5346 21.1524 26.3226 21.8308 26.8477 22.4434C27.81 23.537 28.554 24.4555 28.751 25.0898C28.926 25.7241 28.6199 26.0526 27.9639 26.0527H25.71C24.8568 26.0527 24.5939 25.3527 23.0625 23.8213C21.7281 22.5307 21.1377 22.3555 20.8096 22.3555C20.3502 22.3555 20.2188 22.4648 20.2188 23.1211V25.1553C20.2188 25.7022 20.0435 26.0312 18.5996 26.0312C16.2152 26.0311 13.5684 24.5869 11.709 21.8965C8.90942 17.9596 8.14297 14.9843 8.14258 14.3926C8.14258 14.0644 8.25201 13.7579 8.9082 13.7578H11.1836Z"/>
</mask>
<path d="M11.1836 13.7578L11.1836 12.7578H11.1836V13.7578ZM12.1895 14.6328L11.2441 14.9588L11.2447 14.9606L12.1895 14.6328ZM15.9307 20.6709L15.9298 21.6709H15.9307V20.6709ZM16.3467 16.4922H17.3467V16.4636L17.345 16.4351L16.3467 16.4922ZM15.4492 14.2832H14.4492L14.4492 14.284L15.4492 14.2832ZM20.2188 14.5889H21.2188V14.5888L20.2188 14.5889ZM20.2188 19.0742H19.2188V19.0744L20.2188 19.0742ZM20.5693 19.7305V20.7305H20.57L20.5693 19.7305ZM21.6191 19.0303L22.3262 19.7374L22.3465 19.7171L22.3656 19.6958L21.6191 19.0303ZM24.3975 14.4141L23.4913 13.9912L23.482 14.011L23.4736 14.0313L24.3975 14.4141ZM25.3818 13.7793V12.7793H25.3818L25.3818 13.7793ZM28.3135 14.6113L27.3605 14.3081L27.3462 14.3531L27.3362 14.3993L28.3135 14.6113ZM25.2939 19.8174L26.1472 20.3388L26.2635 20.1486L26.2879 19.927L25.2939 19.8174ZM25.2939 20.8242L26.1004 20.2328L26.094 20.2242L25.2939 20.8242ZM26.8477 22.4434L26.0883 23.0942L26.0969 23.104L26.8477 22.4434ZM28.751 25.0898L29.715 24.8239L29.7107 24.8085L29.706 24.7933L28.751 25.0898ZM27.9639 26.0527V27.0527H27.9641L27.9639 26.0527ZM25.71 26.0527L25.7099 27.0527H25.71V26.0527ZM23.0625 23.8213L23.7696 23.1142L23.7637 23.1083L23.7577 23.1025L23.0625 23.8213ZM20.8096 22.3555L20.8096 21.3555H20.8096V22.3555ZM20.2188 23.1211L19.2188 23.1211V23.1211H20.2188ZM18.5996 26.0312L18.5996 27.0312H18.5996V26.0312ZM11.709 21.8965L12.5317 21.3279L12.5239 21.317L11.709 21.8965ZM8.14258 14.3926H7.14258L7.14258 14.3932L8.14258 14.3926ZM8.9082 13.7578V12.7578H8.90814L8.9082 13.7578ZM11.1836 13.7578L11.1836 14.7578C11.259 14.7578 11.2724 14.7663 11.2515 14.7598C11.2398 14.7561 11.2214 14.749 11.1998 14.7367C11.1781 14.7243 11.1592 14.7102 11.1442 14.6966C11.115 14.6699 11.1164 14.6595 11.1393 14.7022C11.1637 14.7475 11.1981 14.8254 11.2441 14.9588L12.1895 14.6328L13.1348 14.3068C13.0173 13.9661 12.8424 13.5382 12.4913 13.2183C12.0899 12.8525 11.614 12.7578 11.1836 12.7578L11.1836 13.7578ZM12.1895 14.6328L11.2447 14.9606C11.8266 16.6379 12.6032 18.2169 13.3459 19.3918C13.7154 19.9763 14.0941 20.4888 14.4553 20.8685C14.6348 21.0573 14.8328 21.2376 15.0444 21.3774C15.2374 21.505 15.5479 21.6706 15.9298 21.6709L15.9307 20.6709L15.9315 19.6709C16.122 19.6711 16.2069 19.7484 16.1472 19.7089C16.1061 19.6818 16.0244 19.6163 15.9045 19.4902C15.6667 19.2402 15.3671 18.8461 15.0365 18.3231C14.379 17.283 13.6679 15.8433 13.1342 14.305L12.1895 14.6328ZM15.9307 20.6709V21.6709C16.0661 21.6709 16.2896 21.6577 16.527 21.5506C16.7918 21.431 16.9898 21.2337 17.1193 21.0008C17.3273 20.6267 17.3467 20.1702 17.3467 19.8174H16.3467H15.3467C15.3467 19.9729 15.3392 20.0629 15.3324 20.1095C15.3246 20.1622 15.3239 20.1143 15.3713 20.029C15.3978 19.9814 15.4391 19.9223 15.5006 19.8642C15.5632 19.8051 15.6333 19.7596 15.7043 19.7276C15.773 19.6966 15.8317 19.683 15.8698 19.6768C15.9066 19.6708 15.9296 19.6709 15.9307 19.6709V20.6709ZM16.3467 19.8174H17.3467V16.4922H16.3467H15.3467V19.8174H16.3467ZM16.3467 16.4922L17.345 16.4351C17.2892 15.4589 16.9883 14.8614 16.6733 14.4294C16.6045 14.335 16.5372 14.2515 16.4915 14.1944C16.4395 14.1293 16.4173 14.1003 16.4029 14.0793C16.3849 14.053 16.4491 14.1396 16.4492 14.2824L15.4492 14.2832L14.4492 14.284C14.4496 14.7001 14.6151 15.008 14.7518 15.208C14.8147 15.3001 14.8831 15.3854 14.9291 15.4429C14.9814 15.5084 15.0195 15.5559 15.0573 15.6078C15.169 15.7609 15.3166 15.9946 15.3483 16.5493L16.3467 16.4922ZM15.4492 14.2832H16.4492C16.4492 14.5734 16.2203 14.7578 16.0186 14.7578V13.7578V12.7578C15.1167 12.7578 14.4492 13.4679 14.4492 14.2832H15.4492ZM16.0186 13.7578V14.7578H19.5625V13.7578V12.7578H16.0186V13.7578ZM19.5625 13.7578V14.7578C19.5968 14.7578 19.5644 14.7631 19.4981 14.7367C19.4203 14.7057 19.3374 14.6474 19.275 14.5653C19.2191 14.4918 19.2077 14.4363 19.2091 14.4421C19.2109 14.4499 19.2187 14.4929 19.2188 14.5889L20.2188 14.5889L21.2188 14.5888C21.2187 14.2474 21.1758 13.7608 20.8672 13.3549C20.5069 12.881 19.9846 12.7578 19.5625 12.7578V13.7578ZM20.2188 14.5889H19.2188V19.0742H20.2188H21.2188V14.5889H20.2188ZM20.2188 19.0742L19.2188 19.0744C19.2188 19.4389 19.292 19.8148 19.5017 20.133C19.7162 20.4585 20.0914 20.7305 20.5693 20.7305V19.7305V18.7305C20.8942 18.7305 21.0941 18.9148 21.1717 19.0324C21.2444 19.1428 21.2188 19.1906 21.2188 19.074L20.2188 19.0742ZM20.5693 19.7305L20.57 20.7305C20.9605 20.7302 21.2839 20.5956 21.5654 20.4047C21.8135 20.2363 22.0641 19.9995 22.3262 19.7374L21.6191 19.0303L20.912 18.3232C20.7867 18.4485 20.6879 18.5433 20.6068 18.6159C20.5248 18.6893 20.4732 18.7288 20.4427 18.7495C20.4138 18.7691 20.4187 18.7615 20.4504 18.7505C20.4877 18.7375 20.5305 18.7305 20.5687 18.7305L20.5693 19.7305ZM21.6191 19.0303L22.3656 19.6958C24.107 17.7425 25.3193 14.8018 25.3213 14.7969L24.3975 14.4141L23.4736 14.0313C23.4788 14.0189 23.2016 14.6886 22.7295 15.5774C22.2521 16.4759 21.6026 17.5462 20.8727 18.3648L21.6191 19.0303ZM24.3975 14.4141L25.3036 14.8369C25.3408 14.7573 25.3572 14.756 25.3363 14.7717C25.3314 14.7754 25.326 14.7789 25.3206 14.7817C25.318 14.783 25.3158 14.784 25.3141 14.7847C25.3133 14.785 25.3126 14.7853 25.3121 14.7855C25.3117 14.7856 25.3115 14.7857 25.3115 14.7857C25.3115 14.7857 25.3117 14.7856 25.3123 14.7854C25.3129 14.7853 25.3138 14.7851 25.315 14.7848C25.3174 14.7842 25.3213 14.7835 25.3268 14.7827C25.3377 14.7811 25.3557 14.7793 25.3819 14.7793L25.3818 13.7793L25.3818 12.7793C24.9041 12.7793 24.4789 12.913 24.1312 13.1756C23.7987 13.4266 23.6072 13.7427 23.4913 13.9912L24.3975 14.4141ZM25.3818 13.7793V14.7793H27.6348V13.7793V12.7793H25.3818V13.7793ZM27.6348 13.7793V14.7793C27.725 14.7793 27.7344 14.7919 27.6963 14.7776C27.6489 14.7597 27.5504 14.7072 27.4681 14.5903C27.3872 14.4755 27.3698 14.3662 27.368 14.3127C27.3664 14.2666 27.3755 14.2611 27.3605 14.3081L28.3135 14.6113L29.2664 14.9145C29.3782 14.563 29.4766 13.9692 29.1037 13.4393C28.7215 12.8963 28.1006 12.7793 27.6348 12.7793V13.7793ZM28.3135 14.6113L27.3362 14.3993C27.299 14.571 27.1415 14.9443 26.8433 15.4947C26.5629 16.0125 26.2083 16.5973 25.8544 17.1553C25.5018 17.7113 25.1567 18.2299 24.8982 18.6138C24.7686 18.8062 24.6622 18.9625 24.5853 19.076C24.5478 19.1314 24.5155 19.1793 24.4921 19.2145C24.481 19.2312 24.4678 19.2513 24.4559 19.2701C24.4508 19.2783 24.4397 19.296 24.4276 19.3173C24.4222 19.3267 24.4092 19.3498 24.3946 19.3797C24.3876 19.3943 24.3742 19.4227 24.3601 19.4595C24.3526 19.4792 24.3144 19.5765 24.3 19.7078L25.2939 19.8174L26.2879 19.927C26.2735 20.058 26.2354 20.1549 26.2281 20.1741C26.2142 20.2104 26.2011 20.2381 26.1944 20.2519C26.1806 20.2804 26.1686 20.3016 26.1646 20.3086C26.1592 20.3181 26.1549 20.3251 26.1529 20.3285C26.1506 20.3322 26.149 20.3348 26.1484 20.3358C26.1471 20.3379 26.1495 20.334 26.1587 20.3201C26.1759 20.2942 26.203 20.2541 26.2411 20.1978C26.3155 20.088 26.4254 19.9265 26.557 19.7311C26.8206 19.3397 27.177 18.8042 27.5434 18.2265C27.9084 17.6509 28.2902 17.0226 28.6019 16.4474C28.8958 15.9047 29.1862 15.3051 29.2907 14.8234L28.3135 14.6113ZM25.2939 19.8174L24.4407 19.2959C24.3524 19.4403 24.1155 19.7962 24.0834 20.2306C24.0455 20.7434 24.2827 21.1425 24.4939 21.4242L25.2939 20.8242L26.094 20.2242C26.0684 20.1902 26.0541 20.1681 26.0468 20.156C26.0395 20.144 26.0421 20.1464 26.0482 20.1613C26.0546 20.1772 26.0647 20.2064 26.0717 20.2469C26.0789 20.2885 26.0813 20.3332 26.0779 20.3782C26.0713 20.4675 26.0452 20.5177 26.0516 20.5041C26.0547 20.4974 26.0626 20.4817 26.0795 20.4521C26.0966 20.4223 26.1178 20.3869 26.1472 20.3388L25.2939 19.8174ZM25.2939 20.8242L24.4875 21.4156C24.6691 21.6632 25.0062 21.9882 25.2638 22.2409C25.563 22.5345 25.8591 22.8266 26.0884 23.0942L26.8477 22.4434L27.6069 21.7926C27.3112 21.4476 26.9507 21.0941 26.6645 20.8133C26.3367 20.4917 26.1594 20.3134 26.1003 20.2329L25.2939 20.8242ZM26.8477 22.4434L26.0969 23.104C26.5749 23.6471 26.9786 24.1244 27.2835 24.535C27.6031 24.9653 27.7505 25.24 27.796 25.3864L28.751 25.0898L29.706 24.7933C29.5545 24.3053 29.2314 23.8035 28.8892 23.3426C28.5323 22.862 28.0828 22.3332 27.5984 21.7827L26.8477 22.4434ZM28.751 25.0898L27.787 25.3558C27.8064 25.4261 27.7961 25.4312 27.8011 25.3892C27.8073 25.3373 27.8336 25.2483 27.9058 25.163C27.9749 25.0813 28.0445 25.0521 28.0625 25.0459C28.0758 25.0414 28.0492 25.0527 27.9636 25.0527L27.9639 26.0527L27.9641 27.0527C28.4191 27.0526 29.0193 26.9431 29.4323 26.4552C29.8686 25.9397 29.8476 25.3046 29.715 24.8239L28.751 25.0898ZM27.9639 26.0527V25.0527H25.71V26.0527V27.0527H27.9639V26.0527ZM25.71 26.0527L25.71 25.0527C25.6496 25.0527 25.6358 25.0442 25.6209 25.0363C25.5836 25.0165 25.5062 24.9638 25.3502 24.8067C25.1906 24.646 25.0134 24.4441 24.7449 24.1464C24.4862 23.8594 24.1698 23.5143 23.7696 23.1142L23.0625 23.8213L22.3554 24.5284C22.7209 24.8939 23.0116 25.2106 23.2595 25.4856C23.4977 25.7498 23.7267 26.0101 23.9309 26.2158C24.1388 26.4252 24.3827 26.6432 24.6825 26.8025C25.0047 26.9737 25.3437 27.0527 25.7099 27.0527L25.71 26.0527ZM23.0625 23.8213L23.7577 23.1025C22.4049 21.794 21.5622 21.3555 20.8096 21.3555L20.8096 22.3555L20.8095 23.3555C20.7132 23.3555 21.0514 23.2674 22.3673 24.5401L23.0625 23.8213ZM20.8096 22.3555V21.3555C20.5956 21.3555 19.9867 21.3516 19.5707 21.8556C19.3791 22.0876 19.301 22.3436 19.2641 22.5378C19.2273 22.7312 19.2188 22.9336 19.2188 23.1211L20.2188 23.1211L21.2188 23.1211C21.2188 22.9804 21.2266 22.9231 21.2289 22.9114C21.2309 22.9005 21.2144 23.0061 21.1131 23.1288C21.0609 23.192 20.9987 23.2444 20.9324 23.2839C20.8687 23.3218 20.8138 23.3403 20.781 23.3491C20.7293 23.3629 20.7185 23.3555 20.8096 23.3555V22.3555ZM20.2188 23.1211H19.2188V25.1553H20.2188H21.2188V23.1211H20.2188ZM20.2188 25.1553H19.2188C19.2188 25.2535 19.2082 25.2386 19.2285 25.1826C19.2409 25.1482 19.2625 25.1043 19.2968 25.0601C19.3312 25.0158 19.3668 24.9859 19.3931 24.9682C19.4377 24.9383 19.4286 24.9613 19.2851 24.987C19.1458 25.012 18.9287 25.0312 18.5996 25.0312V26.0312V27.0312C19.3241 27.0312 20.0091 26.9637 20.5081 26.6285C21.1633 26.1885 21.2188 25.5185 21.2188 25.1553H20.2188ZM18.5996 26.0312L18.5997 25.0312C16.6102 25.0311 14.2457 23.808 12.5316 21.3279L11.709 21.8965L10.8863 22.465C12.8912 25.3659 15.8203 27.0311 18.5996 27.0312L18.5996 26.0312ZM11.709 21.8965L12.5239 21.317C11.1678 19.4099 10.313 17.7481 9.80021 16.508C9.54361 15.8874 9.37446 15.3767 9.27101 14.9977C9.21921 14.808 9.18532 14.6565 9.16501 14.5447C9.14281 14.4225 9.14257 14.3787 9.14258 14.3919L8.14258 14.3926L7.14258 14.3932C7.14277 14.6812 7.22173 15.0853 7.34161 15.5244C7.46946 15.9928 7.66697 16.5829 7.95197 17.2722C8.52244 18.6519 9.45058 20.4462 10.894 22.476L11.709 21.8965ZM8.14258 14.3926H9.14258C9.14258 14.3604 9.14601 14.3768 9.1344 14.4191C9.12076 14.469 9.08678 14.5523 9.01175 14.633C8.85068 14.8063 8.7105 14.7578 8.90827 14.7578L8.9082 13.7578L8.90814 12.7578C8.44971 12.7578 7.92672 12.8627 7.54689 13.2713C7.17548 13.6709 7.14258 14.15 7.14258 14.3926H8.14258ZM8.9082 13.7578V14.7578H11.1836V13.7578V12.7578H8.9082V13.7578Z" fill="black" mask="url(#path-3-inside-2_437_3310)"/>
</svg>
