<svg width="30" height="30" viewBox="0 0 30 30" fill="none" xmlns="http://www.w3.org/2000/svg">
<g clip-path="url(#clip0_2001_1622)">
<mask id="mask0_2001_1622" style="mask-type:luminance" maskUnits="userSpaceOnUse" x="5" y="9" width="21" height="13">
<path d="M8.04102 9C8.60977 9.00001 8.82812 9.24065 9.04688 9.875C10.1625 13.0906 12.0222 15.9125 12.7881 15.9131C13.0725 15.9131 13.2041 15.7815 13.2041 15.0596V11.7344C13.1166 10.2035 12.3071 10.0719 12.3066 9.52539C12.3066 9.26286 12.5259 9 12.876 9H16.4199C16.9012 9 17.0761 9.26235 17.0762 9.83105V14.3164C17.0763 14.7974 17.2737 14.9727 17.4268 14.9727C17.711 14.9725 17.9518 14.7972 18.4766 14.2725C20.0924 12.4601 21.2505 9.6669 21.2549 9.65625C21.408 9.3281 21.6705 9.0215 22.2393 9.02148H24.4922C25.1704 9.02148 25.324 9.37222 25.1709 9.85352C24.8874 11.1604 22.1553 15.0234 22.1514 15.0596C21.9107 15.4533 21.8233 15.6289 22.1514 16.0664C22.392 16.3946 23.18 17.073 23.7051 17.6855C24.6675 18.7792 25.4114 19.6976 25.6084 20.332C25.7834 20.9663 25.4773 21.2948 24.8213 21.2949H22.5674C21.7142 21.2949 21.4513 20.5948 19.9199 19.0635C18.5856 17.7729 17.9951 17.5977 17.667 17.5977C17.2076 17.5977 17.0762 17.707 17.0762 18.3633V20.3975C17.0762 20.9444 16.9009 21.2734 15.457 21.2734C13.0726 21.2733 10.4259 19.8291 8.56641 17.1387C5.76684 13.2018 5.00039 10.2265 5 9.63477C5 9.30663 5.10943 9.00004 5.76562 9H8.04102Z" fill="white"/>
</mask>
<g mask="url(#mask0_2001_1622)">
<path d="M9.04688 9.875L8.10151 10.201L8.10212 10.2028L9.04688 9.875ZM13.2041 11.7344H14.2041V11.7058L14.2025 11.6773L13.2041 11.7344ZM18.4766 14.2725L19.1837 14.9796L19.2039 14.9593L19.223 14.9379L18.4766 14.2725ZM21.2549 9.65625L20.3487 9.23337L20.3394 9.25321L20.3311 9.27345L21.2549 9.65625ZM25.1709 9.85352L24.218 9.55031L24.2037 9.59532L24.1936 9.64148L25.1709 9.85352ZM22.1514 15.0596L23.0046 15.581L23.1209 15.3908L23.1453 15.1692L22.1514 15.0596ZM22.1514 16.0664L22.9578 15.475L22.9514 15.4664L22.1514 16.0664ZM23.7051 17.6855L22.9458 18.3364L22.9544 18.3462L23.7051 17.6855ZM25.6084 20.332L26.5724 20.0661L26.5681 20.0507L26.5634 20.0355L25.6084 20.332ZM19.9199 19.0635L20.627 18.3564L20.6211 18.3505L20.6151 18.3447L19.9199 19.0635ZM8.56641 17.1387L9.38912 16.5701L9.38136 16.5592L8.56641 17.1387ZM8.04102 9L8.041 10C8.11638 10 8.12978 10.0085 8.10897 10.002C8.09718 9.99828 8.07882 9.99116 8.05726 9.9789C8.03551 9.96653 8.01661 9.9524 8.00162 9.93874C7.9724 9.91211 7.97378 9.90172 7.99673 9.94439C8.02108 9.98965 8.05551 10.0676 8.10151 10.201L9.04688 9.875L9.99224 9.54899C9.87475 9.2083 9.69978 8.78039 9.34877 8.4605C8.94736 8.09469 8.47139 8 8.04103 8L8.04102 9ZM9.04688 9.875L8.10212 10.2028C8.68405 11.8801 9.46066 13.4591 10.2034 14.634C10.5729 15.2185 10.9515 15.731 11.3127 16.1107C11.4923 16.2995 11.6902 16.4797 11.9018 16.6196C12.0948 16.7471 12.4053 16.9128 12.7873 16.9131L12.7881 15.9131L12.7889 14.9131C12.9794 14.9132 13.0643 14.9905 13.0046 14.9511C12.9635 14.9239 12.8818 14.8585 12.7619 14.7324C12.5241 14.4823 12.2245 14.0883 11.8939 13.5653C11.2364 12.5252 10.5253 11.0855 9.99163 9.54723L9.04688 9.875ZM12.7881 15.9131L12.7873 16.9131C12.9227 16.9131 13.1471 16.8998 13.3844 16.7927C13.6493 16.6732 13.8473 16.4759 13.9768 16.2429C14.1847 15.8689 14.2041 15.4124 14.2041 15.0596H13.2041H12.2041C12.2041 15.2151 12.1967 15.305 12.1898 15.3517C12.182 15.4043 12.1813 15.3565 12.2287 15.2712C12.2552 15.2236 12.2965 15.1645 12.3581 15.1064C12.4206 15.0473 12.4907 15.0018 12.5618 14.9697C12.6304 14.9388 12.6891 14.9252 12.7272 14.919C12.764 14.913 12.7879 14.9131 12.7889 14.9131L12.7881 15.9131ZM13.2041 15.0596H14.2041V11.7344H13.2041H12.2041V15.0596H13.2041ZM13.2041 11.7344L14.2025 11.6773C14.1467 10.7011 13.8458 10.1036 13.5307 9.67154C13.4619 9.57718 13.3946 9.4937 13.3489 9.43659C13.2969 9.3715 13.2747 9.34253 13.2603 9.32151C13.2423 9.29521 13.3065 9.38179 13.3066 9.52455L12.3066 9.52539H11.3066C11.307 9.94141 11.4725 10.2502 11.6092 10.4502C11.6722 10.5423 11.7406 10.6276 11.7865 10.6851C11.8389 10.7506 11.8769 10.7981 11.9148 10.85C12.0264 11.0031 12.174 11.2368 12.2057 11.7915L13.2041 11.7344ZM12.3066 9.52539L13.3066 9.52455C13.3066 9.81476 13.0778 10 12.876 10V9V8C11.9741 8 11.3066 8.71012 11.3066 9.52539H12.3066ZM12.876 9V10H16.4199V9V8H12.876V9ZM16.4199 9V10C16.4543 10 16.4218 10.0053 16.3555 9.97893C16.2777 9.94793 16.1949 9.88959 16.1324 9.80745C16.0765 9.73395 16.0651 9.67845 16.0665 9.68433C16.0683 9.69213 16.0762 9.73509 16.0762 9.83111L17.0762 9.83105H18.0762C18.0762 9.48961 18.0332 9.00304 17.7246 8.59708C17.3643 8.12319 16.842 8 16.4199 8V9ZM17.0762 9.83105L16.0762 9.83111V14.3164H17.0762H18.0762V9.83105H17.0762ZM17.0762 14.3164H16.0762C16.0762 14.6809 16.1494 15.057 16.3591 15.3752C16.5736 15.7007 16.9488 15.9727 17.4268 15.9727V14.9727V13.9727C17.7516 13.9727 17.9515 14.157 18.0291 14.2746C18.1018 14.385 18.0762 14.433 18.0762 14.3164H17.0762ZM17.4268 14.9727V15.9727C17.8173 15.9724 18.1413 15.8378 18.4228 15.6469C18.671 15.4785 18.9216 15.2417 19.1837 14.9796L18.4766 14.2725L17.7695 13.5654C17.6441 13.6907 17.5454 13.7854 17.4642 13.8581C17.3822 13.9314 17.3306 13.971 17.3001 13.9917C17.2713 14.0113 17.2762 14.0037 17.3078 13.9927C17.3451 13.9797 17.3887 13.9727 17.4268 13.9727V14.9727ZM18.4766 14.2725L19.223 14.9379C20.9644 12.9847 22.1767 10.044 22.1787 10.0391L21.2549 9.65625L20.3311 9.27345C20.3362 9.26105 20.0591 9.93082 19.5869 10.8196C19.1095 11.7181 18.46 12.7884 17.7301 13.607L18.4766 14.2725ZM21.2549 9.65625L22.1611 10.0791C22.1982 9.99949 22.2146 9.99816 22.1938 10.0139C22.1888 10.0176 22.1834 10.021 22.178 10.0238C22.1754 10.0252 22.1732 10.0262 22.1715 10.0269C22.1739 10.0263 22.1787 10.0256 22.1842 10.0248C22.1952 10.0232 22.2131 10.0215 22.2393 10.0215V9.02148V8.02148C21.7616 8.0215 21.3364 8.15522 20.9886 8.41774C20.6561 8.66881 20.4647 8.98486 20.3487 9.23337L21.2549 9.65625ZM22.2393 9.02148V10.0215H24.4922V9.02148V8.02148H22.2393V9.02148ZM24.4922 9.02148V10.0215C24.5824 10.0215 24.5918 10.0341 24.5537 10.0198C24.5063 10.0019 24.4078 9.94943 24.3255 9.83253C24.2447 9.71766 24.2273 9.60841 24.2254 9.55492C24.2238 9.5088 24.2329 9.5033 24.218 9.55031L25.1709 9.85352L26.1238 10.1567C26.2357 9.80523 26.334 9.21139 25.9611 8.6815C25.5789 8.13848 24.958 8.02148 24.4922 8.02148V9.02148ZM25.1709 9.85352L24.1936 9.64148C24.1564 9.81321 23.9989 10.1865 23.7008 10.7369C23.4203 11.2546 23.0657 11.8395 22.7118 12.3975C22.3592 12.9535 22.0141 13.4721 21.7556 13.856C21.626 14.0483 21.5196 14.2047 21.4427 14.3182C21.4052 14.3736 21.3729 14.4214 21.3495 14.4567C21.3384 14.4734 21.3252 14.4935 21.3134 14.5123C21.3083 14.5204 21.2972 14.5382 21.285 14.5595C21.2796 14.5689 21.2666 14.592 21.2521 14.6219C21.245 14.6365 21.2316 14.6649 21.2175 14.7017C21.21 14.7214 21.1719 14.8187 21.1574 14.95L22.1514 15.0596L23.1453 15.1692C23.1309 15.3002 23.0929 15.3971 23.0855 15.4163C23.0717 15.4525 23.0586 15.4803 23.0519 15.4941C23.0381 15.5226 23.0261 15.5437 23.0221 15.5507C23.0166 15.5602 23.0124 15.5673 23.0103 15.5707C23.008 15.5744 23.0064 15.577 23.0058 15.578C23.0045 15.5801 23.0069 15.5762 23.0161 15.5623C23.0333 15.5364 23.0604 15.4963 23.0985 15.44C23.1729 15.3302 23.2828 15.1687 23.4144 14.9733C23.678 14.5819 24.0344 14.0463 24.4008 13.4686C24.7658 12.893 25.1477 12.2648 25.4593 11.6895C25.7533 11.1469 26.0436 10.5473 26.1482 10.0655L25.1709 9.85352ZM22.1514 15.0596L21.2981 14.5381C21.2098 14.6825 20.9729 15.0384 20.9408 15.4728C20.9029 15.9856 21.1401 16.3847 21.3513 16.6664L22.1514 16.0664L22.9514 15.4664C22.9259 15.4324 22.9115 15.4103 22.9042 15.3982C22.897 15.3862 22.8995 15.3886 22.9056 15.4035C22.912 15.4194 22.9221 15.4486 22.9291 15.4891C22.9363 15.5307 22.9387 15.5754 22.9354 15.6203C22.9288 15.7096 22.9026 15.7599 22.909 15.7463C22.9122 15.7396 22.92 15.7239 22.9369 15.6943C22.954 15.6644 22.9753 15.6291 23.0046 15.581L22.1514 15.0596ZM22.1514 16.0664L21.345 16.6578C21.5266 16.9054 21.8636 17.2303 22.1212 17.4831C22.4205 17.7767 22.7165 18.0688 22.9458 18.3364L23.7051 17.6855L24.4643 17.0348C24.1686 16.6898 23.8081 16.3363 23.5219 16.0555C23.1941 15.7339 23.0168 15.5555 22.9578 15.475L22.1514 16.0664ZM23.7051 17.6855L22.9544 18.3462C23.4323 18.8893 23.836 19.3666 24.1409 19.7772C24.4605 20.2075 24.6079 20.4822 24.6534 20.6286L25.6084 20.332L26.5634 20.0355C26.4119 19.5475 26.0889 19.0457 25.7466 18.5848C25.3897 18.1042 24.9402 17.5754 24.4558 17.0249L23.7051 17.6855ZM25.6084 20.332L24.6444 20.598C24.6638 20.6683 24.6535 20.6734 24.6585 20.6314C24.6647 20.5795 24.691 20.4905 24.7632 20.4051C24.8323 20.3235 24.9019 20.2943 24.9199 20.2881C24.9332 20.2836 24.9067 20.2949 24.821 20.2949L24.8213 21.2949V22.2949C25.2763 22.2948 25.8767 22.1853 26.2897 21.6974C26.7261 21.1819 26.705 20.5468 26.5724 20.0661L25.6084 20.332ZM24.8213 21.2949L24.821 20.2949H22.5674V21.2949L22.5673 22.2949H24.8213V21.2949ZM22.5674 21.2949V20.2949C22.507 20.2949 22.4933 20.2864 22.4784 20.2785C22.4411 20.2587 22.3636 20.206 22.2076 20.0489C22.0481 19.8882 21.8708 19.6863 21.6024 19.3886C21.3437 19.1016 21.0272 18.7565 20.627 18.3564L19.9199 19.0635L19.2128 19.7706C19.5783 20.1361 19.869 20.4528 20.117 20.7278C20.3552 20.992 20.5841 21.2523 20.7883 21.458C20.9962 21.6674 21.2401 21.8854 21.5399 22.0447C21.8621 22.2159 22.2012 22.2949 22.5673 22.2949L22.5674 21.2949ZM19.9199 19.0635L20.6151 18.3447C19.2623 17.0362 18.4197 16.5977 17.667 16.5977V17.5977V18.5977C17.5706 18.5977 17.9088 18.5096 19.2247 19.7823L19.9199 19.0635ZM17.667 17.5977V16.5977C17.453 16.5977 16.8441 16.5938 16.4281 17.0978C16.2366 17.3298 16.1584 17.5858 16.1215 17.78C16.0847 17.9734 16.0762 18.1758 16.0762 18.3633L17.0762 18.3633L18.0762 18.3633C18.0762 18.2226 18.0841 18.1652 18.0863 18.1536C18.0883 18.1427 18.0718 18.2483 17.9705 18.3709C17.9183 18.4342 17.8561 18.4866 17.7898 18.5261C17.7261 18.564 17.6713 18.5825 17.6384 18.5913C17.5867 18.605 17.5759 18.5977 17.667 18.5977V17.5977ZM17.0762 18.3633L16.0762 18.3633V20.3975H17.0762H18.0762V18.3633L17.0762 18.3633ZM17.0762 20.3975H16.0762C16.0762 20.4957 16.0656 20.4808 16.0859 20.4248C16.0984 20.3903 16.12 20.3465 16.1543 20.3023C16.1886 20.258 16.2242 20.2281 16.2506 20.2104C16.2951 20.1805 16.286 20.2035 16.1425 20.2292C16.0032 20.2542 15.7861 20.2734 15.457 20.2734V21.2734V22.2734C16.1815 22.2734 16.8665 22.2058 17.3656 21.8707C18.0208 21.4307 18.0762 20.7607 18.0762 20.3975H17.0762ZM15.457 21.2734V20.2734C13.4675 20.2733 11.1032 19.0502 9.38912 16.5701L8.56641 17.1387L7.74376 17.7072C9.74863 20.6081 12.6777 22.2733 15.457 22.2734V21.2734ZM8.56641 17.1387L9.38136 16.5592C8.02525 14.6521 7.17038 12.9903 6.65764 11.7502C6.40103 11.1296 6.23188 10.6189 6.12843 10.2399C6.07663 10.0502 6.04274 9.89872 6.02243 9.78689C6.00023 9.66468 5.99999 9.62084 6 9.6341L5 9.63477H4C4.00019 9.92276 4.07915 10.3275 4.19903 10.7666C4.32688 11.235 4.52439 11.8251 4.80939 12.5144C5.37986 13.8941 6.308 15.6883 7.75145 17.7182L8.56641 17.1387ZM5 9.63477L6 9.6341C6 9.60189 6.00343 9.61898 5.99183 9.66133C5.97818 9.71114 5.9442 9.79448 5.86917 9.87519C5.7081 10.0485 5.56792 10 5.76569 10L5.76562 9V8C5.3072 8.00003 4.78414 8.10489 4.40431 8.5135C4.0329 8.91305 4 9.39214 4 9.63477H5ZM5.76562 9L5.76569 10H8.041L8.04102 9L8.04103 8H5.76562V9Z" fill="white"/>
</g>
</g>
<defs>
<clipPath id="clip0_2001_1622">
<rect width="21" height="13" fill="white" transform="translate(5 9)"/>
</clipPath>
</defs>
</svg>
