<svg width="30" height="30" viewBox="0 0 30 30" fill="none" xmlns="http://www.w3.org/2000/svg">
<g clip-path="url(#clip0_2001_1622)">
<path d="M15.1328 7.5C15.1328 8 15.1328 8 15.1328 8C15.1324 8 15.133 8 15.1328 8C15.1335 8 15.1356 8 15.1371 8C15.14 8 15.1445 8.00001 15.1504 8.00001C15.1623 8.00003 15.18 8.00006 15.2032 8.00011C15.2496 8.00022 15.318 8.00044 15.4058 8.00087C15.5812 8.00174 15.8339 8.00345 16.1422 8.00687C16.7589 8.01371 17.5971 8.02733 18.4838 8.05446C19.3714 8.08162 20.3035 8.1222 21.1095 8.18263C21.9298 8.24414 22.5762 8.32354 22.9181 8.41763L23.0508 7.93555L23.1834 7.45346C22.7352 7.33012 21.9967 7.24636 21.1842 7.18543C20.3574 7.12343 19.4088 7.0823 18.5144 7.05493C17.6192 7.02754 16.7742 7.01381 16.1533 7.00693C15.8427 7.00349 15.5879 7.00176 15.4107 7.00088C15.322 7.00045 15.2528 7.00023 15.2056 7.00012C15.182 7.00006 15.1639 7.00003 15.1516 7.00002C15.1455 7.00001 15.1409 7 15.1377 7C15.1362 7 15.135 7 15.1342 7C15.1337 7 15.1331 7 15.1329 7C15.1328 7 15.1329 7 15.1328 7.5ZM23.0508 7.93555L22.9181 8.41763C23.6128 8.60827 24.1696 9.1741 24.3589 9.90134L24.8428 9.77539L25.3266 9.64944C25.0498 8.58592 24.2328 7.74141 23.1834 7.45346L23.0508 7.93555ZM24.8428 9.77539L24.3589 9.90134C24.5561 10.6573 24.661 11.8625 24.7141 12.9136C24.7403 13.4318 24.7534 13.9004 24.76 14.2395C24.7633 14.4089 24.765 14.5457 24.7658 14.6399C24.7662 14.687 24.7664 14.7234 24.7665 14.7479C24.7666 14.7601 24.7666 14.7694 24.7666 14.7755C24.7666 14.7785 24.7666 14.7808 24.7666 14.7823C24.7666 14.783 24.7666 14.7835 24.7666 14.7839C24.7666 14.7839 24.7666 14.7842 25.2666 14.7842C25.7666 14.7841 25.7666 14.7844 25.7666 14.7844C25.7666 14.7844 25.7666 14.7843 25.7666 14.7844C25.7666 14.7842 25.7666 14.7835 25.7666 14.7833C25.7666 14.7828 25.7666 14.7821 25.7666 14.7812C25.7666 14.7794 25.7666 14.7768 25.7666 14.7734C25.7666 14.7666 25.7665 14.7566 25.7665 14.7436C25.7664 14.7177 25.7662 14.6798 25.7657 14.6311C25.7649 14.5338 25.7632 14.3934 25.7598 14.2201C25.7531 13.8736 25.7397 13.3943 25.7128 12.8631C25.6599 11.8155 25.5528 10.5164 25.3266 9.64944L24.8428 9.77539ZM25.2666 14.7842L24.7666 14.7839C24.7666 14.7997 24.7659 15.6394 24.7132 16.6731C24.6598 17.7202 24.555 18.9154 24.359 19.6667L24.8428 19.793L25.3266 19.9192C25.5515 19.0573 25.6587 17.768 25.7119 16.724C25.7658 15.6666 25.7666 14.8084 25.7666 14.7844L25.2666 14.7842ZM24.8428 19.793L24.359 19.6667C24.1696 20.3939 23.613 20.96 22.9184 21.1507L23.0508 21.6328L23.1832 22.115C24.2323 21.8269 25.0497 20.9824 25.3266 19.9192L24.8428 19.793ZM23.0508 21.6328L22.9184 21.1507C22.5764 21.2448 21.9297 21.3241 21.1094 21.3855C20.3035 21.4458 19.3714 21.4863 18.4838 21.5133C17.5971 21.5404 16.7589 21.5539 16.1422 21.5606C15.834 21.564 15.5813 21.5657 15.4058 21.5665C15.3181 21.567 15.2496 21.5672 15.2032 21.5673C15.18 21.5673 15.1623 21.5674 15.1505 21.5674C15.1446 21.5674 15.1401 21.5674 15.1372 21.5674C15.1357 21.5674 15.1346 21.5674 15.1338 21.5674C15.134 21.5674 15.1335 21.5674 15.1338 21.5674C15.1337 21.5674 15.1328 21.5674 15.1328 22.0674C15.1328 22.5674 15.1327 22.5674 15.1328 22.5674C15.1327 22.5674 15.1329 22.5674 15.1328 22.5674C15.133 22.5674 15.1337 22.5674 15.1341 22.5674C15.1349 22.5674 15.1361 22.5674 15.1377 22.5674C15.1408 22.5674 15.1455 22.5674 15.1516 22.5674C15.1638 22.5674 15.1819 22.5673 15.2055 22.5673C15.2527 22.5672 15.322 22.567 15.4106 22.5665C15.5879 22.5657 15.8426 22.564 16.1532 22.5606C16.7741 22.5538 17.6191 22.5402 18.5143 22.5129C19.4086 22.4856 20.3572 22.4446 21.1841 22.3827C21.9966 22.3219 22.7348 22.2383 23.1832 22.115L23.0508 21.6328ZM15.1328 22.0674L15.1338 21.5674C15.1176 21.5674 13.5371 21.5671 11.7667 21.5129C10.8811 21.4858 9.95217 21.4453 9.14928 21.385C8.33207 21.3237 7.68838 21.2445 7.34745 21.1507L7.21484 21.6328L7.08223 22.1149C7.52931 22.2379 8.26487 22.3214 9.07442 22.3822C9.89827 22.444 10.8436 22.4851 11.736 22.5124C13.5216 22.5671 15.113 22.5674 15.1328 22.5674V22.0674ZM7.21484 21.6328L7.34745 21.1507C6.65281 20.9599 6.0961 20.3941 5.90671 19.6669L5.42285 19.793L4.93899 19.919C5.21593 20.9823 6.03303 21.8268 7.08223 22.1149L7.21484 21.6328ZM5.42285 19.793L5.90671 19.6669C5.7107 18.9157 5.60613 17.7203 5.55295 16.6732C5.50046 15.6395 5.50001 14.8 5.5 14.784L5 14.7842L4.5 14.7842C4.50001 14.8081 4.50054 15.6665 4.55424 16.7239C4.60726 17.7679 4.7141 19.057 4.93899 19.919L5.42285 19.793ZM5 14.7842C5.5 14.7841 5.5 14.784 5.5 14.784C5.5 14.7837 5.5 14.7829 5.5 14.7821C5.5 14.7807 5.50001 14.7784 5.50001 14.7754C5.50002 14.7692 5.50005 14.76 5.50009 14.7477C5.50019 14.7233 5.50039 14.6869 5.50079 14.6398C5.50159 14.5456 5.5032 14.4088 5.50645 14.2394C5.51295 13.9003 5.52597 13.4317 5.55204 12.9135C5.60493 11.8624 5.70948 10.6575 5.90666 9.90159L5.42285 9.77539L4.93904 9.64919C4.71289 10.5162 4.60602 11.8156 4.55331 12.8632C4.52658 13.3944 4.51327 13.8737 4.50663 14.2202C4.50331 14.3936 4.50165 14.5339 4.50082 14.6313C4.50041 14.6799 4.5002 14.7179 4.5001 14.7438C4.50005 14.7567 4.50003 14.7667 4.50001 14.7735C4.50001 14.7769 4.5 14.7795 4.5 14.7813C4.5 14.7822 4.5 14.7837 4.5 14.7842C4.5 14.7843 4.5 14.7843 5 14.7842ZM5.42285 9.77539L5.90666 9.90159C6.09594 9.17441 6.65247 8.60838 7.34718 8.41772L7.21484 7.93555L7.08251 7.45338C6.03324 7.74136 5.21587 8.58569 4.93904 9.64919L5.42285 9.77539ZM7.21484 7.93555L7.34718 8.41772C7.6881 8.32391 8.33211 8.24459 9.14931 8.18314C9.95221 8.12277 10.8811 8.08216 11.7667 8.05492C13.5372 8.00047 15.1167 8 15.1328 8V7.5L15.1329 7C15.113 7 13.5215 7.00048 11.7359 7.05539C10.8435 7.08284 9.89818 7.12401 9.07433 7.18596C8.26479 7.24683 7.52956 7.33036 7.08251 7.45338L7.21484 7.93555Z" fill="white"/>
<path d="M13.2324 18.2679V11.9346L18.2991 15.1014L13.2324 18.2679Z" stroke="white"/>
</g>
<defs>
<clipPath id="clip0_2001_1622">
<rect width="22" height="16" fill="white" transform="translate(4.5 7)"/>
</clipPath>
</defs>
</svg>
