<svg width="39" height="39" viewBox="0 0 39 39" fill="none" xmlns="http://www.w3.org/2000/svg">
<path d="M19.5 0.5V0V0V0.5ZM38.5 19.5H39V19.5H38.5ZM19.5 38.5V39V39V38.5ZM0.5 19.5H0V19.5H0.5ZM19.5 12.5332L19.5 12.0332H19.5L19.5 12.5332ZM11.582 12.9678L11.7144 13.4499L11.7147 13.4499L11.582 12.9678ZM9.79004 14.8076L10.2738 14.9338L10.2739 14.9336L9.79004 14.8076ZM9.36719 19.8164L8.86719 19.8165V19.8166L9.36719 19.8164ZM9.79004 24.8252L10.2739 24.6992L10.2738 24.699L9.79004 24.8252ZM11.582 26.665L11.7146 26.1829L11.7144 26.1829L11.582 26.665ZM19.5 27.0996L19.5 27.5996H19.5L19.5 27.0996ZM27.418 26.665L27.2856 26.1829L27.2854 26.1829L27.418 26.665ZM29.21 24.8252L28.7262 24.6989L28.7261 24.6992L29.21 24.8252ZM29.6338 19.8164L30.1338 19.8166V19.8164L29.6338 19.8164ZM29.21 14.8076L28.7261 14.9336L28.7262 14.9339L29.21 14.8076ZM27.418 12.9678L27.2853 13.4499L27.2857 13.4499L27.418 12.9678ZM19.5 0.5V1C29.7173 1 38 9.28273 38 19.5H38.5H39C39 8.73045 30.2696 0 19.5 0V0.5ZM38.5 19.5H38C38 29.7173 29.7173 38 19.5 38V38.5V39C30.2696 39 39 30.2696 39 19.5H38.5ZM19.5 38.5V38C9.28273 38 1 29.7173 1 19.5H0.5H0C0 30.2696 8.73045 39 19.5 39V38.5ZM0.5 19.5H1C1 9.28273 9.28273 1 19.5 1V0.5V0C8.73045 2.68221e-07 2.68221e-07 8.73045 0 19.5H0.5ZM19.5 12.5332L19.5 12.0332C19.4802 12.0332 17.8888 12.0334 16.1032 12.0881C15.2108 12.1154 14.2654 12.1565 13.4416 12.2183C12.632 12.2791 11.8965 12.3627 11.4494 12.4857L11.582 12.9678L11.7147 13.4499C12.0556 13.3561 12.6992 13.2769 13.5164 13.2155C14.3193 13.1552 15.2482 13.1148 16.1338 13.0876C17.9043 13.0334 19.4839 13.0332 19.5 13.0332L19.5 12.5332ZM11.582 12.9678L11.4497 12.4856C10.4004 12.7736 9.58299 13.6182 9.30616 14.6817L9.79004 14.8076L10.2739 14.9336C10.4632 14.2064 11.0197 13.6406 11.7144 13.4499L11.582 12.9678ZM9.79004 14.8076L9.30623 14.6814C9.08007 15.5484 8.9732 16.8479 8.9205 17.8955C8.89377 18.4266 8.88046 18.9059 8.87382 19.2524C8.8705 19.4258 8.86884 19.5662 8.86801 19.6635C8.8676 19.7122 8.86739 19.7501 8.86729 19.776C8.86724 19.789 8.86721 19.7989 8.8672 19.8057C8.86719 19.8091 8.86719 19.8117 8.86719 19.8135C8.86719 19.8144 8.86719 19.8151 8.86719 19.8156C8.86719 19.8159 8.86719 19.8161 8.86719 19.8162C8.86719 19.8163 8.86719 19.8163 8.86719 19.8164C8.86719 19.8164 8.86719 19.8165 9.36719 19.8164C9.86719 19.8163 9.86719 19.8164 9.86719 19.8164C9.86719 19.8163 9.86719 19.8163 9.86719 19.8163C9.86719 19.8162 9.86719 19.8161 9.86719 19.816C9.86719 19.8156 9.86719 19.8151 9.86719 19.8144C9.86719 19.8129 9.86719 19.8106 9.8672 19.8076C9.86721 19.8015 9.86723 19.7922 9.86728 19.78C9.86738 19.7555 9.86758 19.7191 9.86798 19.672C9.86878 19.5778 9.87039 19.441 9.87364 19.2716C9.88013 18.9325 9.89316 18.4639 9.91923 17.9457C9.97211 16.8947 10.0767 15.6897 10.2738 14.9338L9.79004 14.8076ZM9.36719 19.8164L8.86719 19.8166C8.8672 19.8404 8.86772 20.6987 8.92143 21.7561C8.97445 22.8001 9.08134 24.0894 9.30623 24.9514L9.79004 24.8252L10.2738 24.699C10.0778 23.9477 9.97332 22.7526 9.92014 21.7054C9.86765 20.6718 9.86719 19.8322 9.86719 19.8162L9.36719 19.8164ZM9.79004 24.8252L9.30618 24.9512C9.58311 26.0145 10.4005 26.8591 11.4497 27.1472L11.582 26.665L11.7144 26.1829C11.0198 25.9922 10.4633 25.4263 10.2739 24.6992L9.79004 24.8252ZM11.582 26.665L11.4494 27.1471C11.8965 27.2701 12.6321 27.3537 13.4416 27.4144C14.2655 27.4763 15.2108 27.5173 16.1032 27.5447C17.8888 27.5993 19.4802 27.5996 19.5 27.5996L19.5 27.0996L19.5 26.5996C19.4839 26.5996 17.9043 26.5993 16.1339 26.5451C15.2483 26.518 14.3194 26.4775 13.5165 26.4172C12.6993 26.3559 12.0556 26.2767 11.7146 26.1829L11.582 26.665ZM19.5 27.0996C19.5 27.5996 19.5 27.5996 19.5001 27.5996C19.5001 27.5996 19.5002 27.5996 19.5003 27.5996C19.5006 27.5996 19.5009 27.5996 19.5013 27.5996C19.5021 27.5996 19.5033 27.5996 19.5049 27.5996C19.508 27.5996 19.5127 27.5996 19.5188 27.5996C19.531 27.5996 19.5491 27.5996 19.5727 27.5995C19.6199 27.5994 19.6892 27.5992 19.7778 27.5988C19.955 27.5979 20.2098 27.5962 20.5204 27.5928C21.1413 27.586 21.9863 27.5724 22.8815 27.5451C23.7758 27.5179 24.7244 27.4768 25.5513 27.4149C26.3638 27.3541 27.1022 27.2704 27.5506 27.1471L27.418 26.665L27.2854 26.1829C26.9434 26.277 26.2969 26.3563 25.4766 26.4177C24.6707 26.4781 23.7385 26.5185 22.851 26.5456C21.9643 26.5726 21.1261 26.5861 20.5094 26.5929C20.2012 26.5962 19.9485 26.5979 19.773 26.5988C19.6853 26.5992 19.6168 26.5994 19.5704 26.5995C19.5472 26.5996 19.5295 26.5996 19.5177 26.5996C19.5118 26.5996 19.5073 26.5996 19.5043 26.5996C19.5029 26.5996 19.5018 26.5996 19.501 26.5996C19.5007 26.5996 19.5004 26.5996 19.5002 26.5996C19.5001 26.5996 19.5001 26.5996 19.5 26.5996C19.5 26.5996 19.5 26.5996 19.5 27.0996ZM27.418 26.665L27.5503 27.1472C28.5995 26.8592 29.4169 26.0145 29.6938 24.9512L29.21 24.8252L28.7261 24.6992C28.5367 25.4263 27.9802 25.9922 27.2856 26.1829L27.418 26.665ZM29.21 24.8252L29.6938 24.9515C29.9187 24.0895 30.0259 22.8002 30.0791 21.7562C30.133 20.6988 30.1338 19.8406 30.1338 19.8166L29.6338 19.8164L29.1338 19.8162C29.1338 19.8321 29.1331 20.6716 29.0804 21.7053C29.027 22.7524 28.9222 23.9476 28.7262 24.6989L29.21 24.8252ZM29.6338 19.8164C30.1338 19.8164 30.1338 19.8163 30.1338 19.8163C30.1338 19.8162 30.1338 19.8161 30.1338 19.8161C30.1338 19.8159 30.1338 19.8157 30.1338 19.8155C30.1338 19.815 30.1338 19.8143 30.1338 19.8134C30.1338 19.8116 30.1338 19.809 30.1338 19.8056C30.1338 19.7988 30.1337 19.7888 30.1337 19.7759C30.1336 19.75 30.1334 19.712 30.1329 19.6634C30.1321 19.566 30.1304 19.4257 30.127 19.2523C30.1203 18.9058 30.1069 18.4265 30.08 17.8954C30.0271 16.8477 29.92 15.5483 29.6938 14.6814L29.21 14.8076L28.7262 14.9339C28.9234 15.6898 29.0282 16.8948 29.0813 17.9458C29.1075 18.464 29.1206 18.9326 29.1272 19.2717C29.1305 19.4411 29.1321 19.5779 29.133 19.6721C29.1334 19.7192 29.1336 19.7556 29.1337 19.7801C29.1337 19.7923 29.1338 19.8016 29.1338 19.8077C29.1338 19.8108 29.1338 19.813 29.1338 19.8145C29.1338 19.8152 29.1338 19.8158 29.1338 19.8161C29.1338 19.8163 29.1338 19.8164 29.1338 19.8164C29.1338 19.8165 29.1338 19.8165 29.1338 19.8165C29.1338 19.8165 29.1338 19.8165 29.6338 19.8164ZM29.21 14.8076L29.6938 14.6817C29.417 13.6181 28.5996 12.7735 27.5503 12.4856L27.418 12.9678L27.2857 13.4499C27.9804 13.6406 28.5368 14.2063 28.7261 14.9336L29.21 14.8076ZM27.418 12.9678L27.5506 12.4857C27.1023 12.3623 26.3639 12.2786 25.5514 12.2178C24.7245 12.1559 23.7759 12.1149 22.8815 12.0876C21.9863 12.0604 21.1413 12.0468 20.5204 12.04C20.2098 12.0366 19.9551 12.0349 19.7778 12.034C19.6891 12.0336 19.6199 12.0334 19.5727 12.0333C19.5491 12.0333 19.531 12.0332 19.5188 12.0332C19.5126 12.0332 19.508 12.0332 19.5048 12.0332C19.5033 12.0332 19.5021 12.0332 19.5013 12.0332C19.5009 12.0332 19.5005 12.0332 19.5003 12.0332C19.5002 12.0332 19.5001 12.0332 19.5001 12.0332C19.5 12.0332 19.5 12.0332 19.5 12.5332C19.5 13.0332 19.5 13.0332 19.5001 13.0332C19.5001 13.0332 19.5002 13.0332 19.5002 13.0332C19.5004 13.0332 19.5007 13.0332 19.501 13.0332C19.5018 13.0332 19.5029 13.0332 19.5044 13.0332C19.5073 13.0332 19.5118 13.0332 19.5177 13.0332C19.5296 13.0332 19.5472 13.0333 19.5704 13.0333C19.6169 13.0334 19.6853 13.0336 19.773 13.034C19.9485 13.0349 20.2012 13.0366 20.5095 13.0399C21.1262 13.0467 21.9643 13.0602 22.8511 13.0872C23.7387 13.1142 24.6708 13.1547 25.4767 13.215C26.297 13.2764 26.9434 13.3558 27.2853 13.4499L27.418 12.9678Z" fill="black"/>
<path d="M17.5996 23.3001V16.9668L22.6663 20.1336L17.5996 23.3001Z" stroke="black"/>
</svg>
