<svg width="160" height="142" viewBox="0 0 160 142" fill="none" xmlns="http://www.w3.org/2000/svg">
<path d="M79.0244 97.1717L74.7246 101.679L35.3057 140.338C33.6348 142.012 30.9843 142.717 29.3135 141.043L21.6738 133.59C20.8703 132.782 20.419 131.69 20.4189 130.553C20.4189 129.415 20.8704 128.323 21.6738 127.515L62.6504 87.9422L67.1094 83.6444L79.0244 97.1717ZM95.9268 79.4627H95.9258L84.8184 66.5799V66.5789L95.9268 79.4627ZM132.45 2.17854C135.31 0.864303 136.146 4.00585 135.431 5.08772C134.715 6.15407 129.759 14.7594 128.145 17.8289C126.538 20.8822 123.333 25.4185 132.555 31.9178C141.407 38.1764 146.163 31.8372 148.091 28.6317C150.035 25.394 154.758 18.2545 155.826 16.5633C156.895 14.8884 158.951 14.0628 159.546 18.0213C160.148 21.9801 160.791 37.2703 156.919 44.5311C152.605 52.6571 145.447 57.5702 132.329 54.6131C126.208 53.2189 119.444 56.3039 116.279 59.4774L102.993 72.0594L99.3955 75.828L88.4248 63.1043L92.1562 59.5096L102.944 48.2899C111.837 39.3545 107.306 30.3552 109.772 20.2899C112.182 10.3927 129.582 3.49281 132.45 2.17854Z" fill="#878787"/>
<path d="M79.0244 97.1717L74.7246 101.679L35.3057 140.338C33.6348 142.012 30.9843 142.717 29.3135 141.043L21.6738 133.59C20.8703 132.782 20.419 131.69 20.4189 130.553C20.4189 129.415 20.8704 128.323 21.6738 127.515L62.6504 87.9422L67.1094 83.6444L79.0244 97.1717ZM95.9268 79.4627H95.9258L84.8184 66.5799V66.5789L95.9268 79.4627ZM132.45 2.17854C135.31 0.864303 136.146 4.00585 135.431 5.08772C134.715 6.15407 129.759 14.7594 128.145 17.8289C126.538 20.8822 123.333 25.4185 132.555 31.9178C141.407 38.1764 146.163 31.8372 148.091 28.6317C150.035 25.394 154.758 18.2545 155.826 16.5633C156.895 14.8884 158.951 14.0628 159.546 18.0213C160.148 21.9801 160.791 37.2703 156.919 44.5311C152.605 52.6571 145.447 57.5702 132.329 54.6131C126.208 53.2189 119.444 56.3039 116.279 59.4774L102.993 72.0594L99.3955 75.828L88.4248 63.1043L92.1562 59.5096L102.944 48.2899C111.837 39.3545 107.306 30.3552 109.772 20.2899C112.182 10.3927 129.582 3.49281 132.45 2.17854Z" fill="#878787"/>
<path d="M24.855 46.0702C32.3498 40.2601 38.5674 44.2671 46.8656 53.8517C47.7975 54.9335 49.0506 53.6673 49.7656 53.0503C50.4725 52.4252 61.4216 42.5922 61.9598 42.1434C62.49 41.6706 63.1326 40.7891 62.2891 39.8033C60.2573 37.2962 58.2675 34.7554 56.3206 32.1822C41.7967 13.2294 96.0522 0.375102 87.7219 0.174755C83.4804 0.0625612 66.4663 -0.137785 63.9199 0.1427C53.6134 1.22457 40.6721 10.8332 34.1573 15.313C25.6342 21.131 22.4531 24.5449 21.9309 25.0178C19.521 27.1174 21.5453 31.9658 17.1754 35.7884C12.5563 39.8194 9.67245 36.7661 6.99743 39.1061C5.67198 40.2762 1.96069 43.049 0.900324 43.9706C-0.168076 44.9082 -0.36087 46.4869 0.731629 47.7451C0.731629 47.7451 10.8854 58.9325 11.737 59.9262C12.5804 60.9039 14.8779 61.7533 16.2917 60.4952C17.7136 59.245 21.3686 56.0635 21.9791 55.5025C22.6057 54.9736 21.5775 48.6026 24.855 46.0702ZM68.4255 46.9935C67.4615 45.8796 66.2646 45.8475 65.2363 46.7611L53.7169 56.7945C53.2722 57.197 53.0011 57.7559 52.9607 58.3536C52.9202 58.9513 53.1135 59.5414 53.5 60L122.409 138.863C123.967 140.65 126.666 140.834 128.442 139.288L136.234 132.772C137.091 132.019 137.616 130.958 137.695 129.821C137.773 128.683 137.398 127.561 136.651 126.698L68.4255 46.9935Z" fill="#878787"/>
<path d="M24.855 46.0702C32.3498 40.2601 38.5674 44.2671 46.8656 53.8517C47.7975 54.9335 49.0506 53.6673 49.7656 53.0503C50.4725 52.4252 61.4216 42.5922 61.9598 42.1434C62.49 41.6706 63.1326 40.7891 62.2891 39.8033C60.2573 37.2962 58.2675 34.7554 56.3206 32.1822C41.7967 13.2294 96.0522 0.375102 87.7219 0.174755C83.4804 0.0625612 66.4663 -0.137785 63.9199 0.1427C53.6134 1.22457 40.6721 10.8332 34.1573 15.313C25.6342 21.131 22.4531 24.5449 21.9309 25.0178C19.521 27.1174 21.5453 31.9658 17.1754 35.7884C12.5563 39.8194 9.67245 36.7661 6.99743 39.1061C5.67198 40.2762 1.96069 43.049 0.900324 43.9706C-0.168076 44.9082 -0.36087 46.4869 0.731629 47.7451C0.731629 47.7451 10.8854 58.9325 11.737 59.9262C12.5804 60.9039 14.8779 61.7533 16.2917 60.4952C17.7136 59.245 21.3686 56.0635 21.9791 55.5025C22.6057 54.9736 21.5775 48.6026 24.855 46.0702ZM68.4255 46.9935C67.4615 45.8796 66.2646 45.8475 65.2363 46.7611L53.7169 56.7945C53.2722 57.197 53.0011 57.7559 52.9607 58.3536C52.9202 58.9513 53.1135 59.5414 53.5 60L122.409 138.863C123.967 140.65 126.666 140.834 128.442 139.288L136.234 132.772C137.091 132.019 137.616 130.958 137.695 129.821C137.773 128.683 137.398 127.561 136.651 126.698L68.4255 46.9935Z" fill="#878787"/>
</svg>
