<svg width="160" height="160" viewBox="0 0 160 160" fill="none" xmlns="http://www.w3.org/2000/svg">
<path fill-rule="evenodd" clip-rule="evenodd" d="M99.8952 10.1505C112.987 -2.94093 134.212 -2.94093 147.303 10.1505C160.395 23.2419 160.395 44.4673 147.303 57.5587C136.463 68.3987 120.047 70.2629 107.289 63.1514C106.477 62.6988 105.456 62.8106 104.798 63.4679L65.1295 103.137C64.3485 103.918 64.3485 105.184 65.1295 105.965L73.9452 114.781C74.7262 115.562 74.7262 116.828 73.9452 117.609L67.6247 123.93C66.8436 124.711 65.5773 124.711 64.7962 123.93L55.9805 115.114C55.1995 114.333 53.9332 114.333 53.1521 115.114L49.3268 118.94C48.5457 119.721 48.5457 120.987 49.3268 121.768L58.1425 130.584C58.9235 131.365 58.9235 132.631 58.1425 133.412L51.8219 139.733C51.0409 140.514 49.7745 140.514 48.9935 139.733L40.1778 130.917C39.3968 130.136 38.1304 130.136 37.3494 130.917L33.524 134.742C32.743 135.523 31.4766 135.523 30.6956 134.742L22.7116 126.758C21.9306 125.977 21.9306 124.711 22.7116 123.93L93.986 52.6555C94.6433 51.9982 94.7551 50.9774 94.3025 50.1655C87.191 37.4073 89.0553 20.9905 99.8952 10.1505ZM138.155 19.2994C130.116 11.2609 117.083 11.2609 109.044 19.2994C101.006 27.338 101.006 40.3712 109.044 48.4098C117.083 56.4484 130.116 56.4484 138.155 48.4098C146.193 40.3712 146.193 27.338 138.155 19.2994Z" fill="#878787"/>
<path fill-rule="evenodd" clip-rule="evenodd" d="M99.8952 10.1505C112.987 -2.94093 134.212 -2.94093 147.303 10.1505C160.395 23.2419 160.395 44.4673 147.303 57.5587C136.463 68.3987 120.047 70.2629 107.289 63.1514C106.477 62.6988 105.456 62.8106 104.798 63.4679L65.1295 103.137C64.3485 103.918 64.3485 105.184 65.1295 105.965L73.9452 114.781C74.7262 115.562 74.7262 116.828 73.9452 117.609L67.6247 123.93C66.8436 124.711 65.5773 124.711 64.7962 123.93L55.9805 115.114C55.1995 114.333 53.9332 114.333 53.1521 115.114L49.3268 118.94C48.5457 119.721 48.5457 120.987 49.3268 121.768L58.1425 130.584C58.9235 131.365 58.9235 132.631 58.1425 133.412L51.8219 139.733C51.0409 140.514 49.7745 140.514 48.9935 139.733L40.1778 130.917C39.3968 130.136 38.1304 130.136 37.3494 130.917L33.524 134.742C32.743 135.523 31.4766 135.523 30.6956 134.742L22.7116 126.758C21.9306 125.977 21.9306 124.711 22.7116 123.93L93.986 52.6555C94.6433 51.9982 94.7551 50.9774 94.3025 50.1655C87.191 37.4073 89.0553 20.9905 99.8952 10.1505ZM138.155 19.2994C130.116 11.2609 117.083 11.2609 109.044 19.2994C101.006 27.338 101.006 40.3712 109.044 48.4098C117.083 56.4484 130.116 56.4484 138.155 48.4098C146.193 40.3712 146.193 27.338 138.155 19.2994Z" fill="#878787"/>
<path d="M86.7012 22.7617C86.2085 24.406 85.8289 26.0767 85.5605 27.7617H5.5V154.5H132.238V71.3984C133.93 71.011 135.601 70.5091 137.238 69.8906V155C137.238 157.485 135.223 159.5 132.738 159.5H5C2.51473 159.5 0.500025 157.485 0.5 155V27.2617C0.500208 24.7766 2.51485 22.7617 5 22.7617H86.7012Z" fill="#878787"/>
<path d="M86.7012 22.7617C86.2085 24.406 85.8289 26.0767 85.5605 27.7617H5.5V154.5H132.238V71.3984C133.93 71.011 135.601 70.5091 137.238 69.8906V155C137.238 157.485 135.223 159.5 132.738 159.5H5C2.51473 159.5 0.500025 157.485 0.5 155V27.2617C0.500208 24.7766 2.51485 22.7617 5 22.7617H86.7012Z" fill="#878787"/>
</svg>
