<svg width="117" height="161" viewBox="0 0 117 161" fill="none" xmlns="http://www.w3.org/2000/svg">
<path d="M37.2578 137.438C50.9791 140.253 65.1418 140.253 78.8633 137.439C78.0244 142.536 77.5469 147.7 77.4385 152.896C77.4085 154.296 76.6233 155.576 75.3711 156.202C64.4731 161.65 51.648 161.65 40.75 156.202C39.4978 155.576 38.7133 154.296 38.6836 152.896C38.575 147.7 38.0963 142.535 37.2578 137.438ZM58.0605 0.352722C90.1264 0.352722 116.121 26.3473 116.121 58.4133C116.121 77.4251 106.984 94.3035 92.8594 104.894C90.0725 106.983 88.6792 108.029 87.8809 109.059C87.0825 110.088 86.6214 111.204 85.6992 113.434C85.3674 114.239 85.044 115.047 84.7314 115.858C67.4324 121.642 48.6873 121.641 31.3887 115.857C31.0761 115.046 30.7541 114.238 30.4219 113.434C29.5004 111.204 29.039 110.088 28.2402 109.059C27.4415 108.029 26.0485 106.984 23.2617 104.894C9.1381 94.3035 0 77.4252 0 58.4133C0 26.3473 25.9946 0.352722 58.0605 0.352722ZM64.6123 54.9416C63.1885 54.1189 61.3666 54.6067 60.5439 56.0305L46.332 80.6291C44.5652 83.6872 47.1637 87.4185 50.6445 86.8224L62.4121 84.8058L52.8604 100.002C51.9853 101.394 52.4048 103.232 53.7969 104.107C55.189 104.982 57.0262 104.563 57.9014 103.171L69.583 84.5871C71.4414 81.6303 69.0607 77.893 65.6797 78.216L65.3496 78.2599L53.3936 80.3098L65.7012 59.0099C66.5237 57.5862 66.036 55.7643 64.6123 54.9416Z" fill="#878787"/>
<path d="M37.2578 137.438C50.9791 140.253 65.1418 140.253 78.8633 137.439C78.0244 142.536 77.5469 147.7 77.4385 152.896C77.4085 154.296 76.6233 155.576 75.3711 156.202C64.4731 161.65 51.648 161.65 40.75 156.202C39.4978 155.576 38.7133 154.296 38.6836 152.896C38.575 147.7 38.0963 142.535 37.2578 137.438ZM58.0605 0.352722C90.1264 0.352722 116.121 26.3473 116.121 58.4133C116.121 77.4251 106.984 94.3035 92.8594 104.894C90.0725 106.983 88.6792 108.029 87.8809 109.059C87.0825 110.088 86.6214 111.204 85.6992 113.434C85.3674 114.239 85.044 115.047 84.7314 115.858C67.4324 121.642 48.6873 121.641 31.3887 115.857C31.0761 115.046 30.7541 114.238 30.4219 113.434C29.5004 111.204 29.039 110.088 28.2402 109.059C27.4415 108.029 26.0485 106.984 23.2617 104.894C9.1381 94.3035 0 77.4252 0 58.4133C0 26.3473 25.9946 0.352722 58.0605 0.352722ZM64.6123 54.9416C63.1885 54.1189 61.3666 54.6067 60.5439 56.0305L46.332 80.6291C44.5652 83.6872 47.1637 87.4185 50.6445 86.8224L62.4121 84.8058L52.8604 100.002C51.9853 101.394 52.4048 103.232 53.7969 104.107C55.189 104.982 57.0262 104.563 57.9014 103.171L69.583 84.5871C71.4414 81.6303 69.0607 77.893 65.6797 78.216L65.3496 78.2599L53.3936 80.3098L65.7012 59.0099C66.5237 57.5862 66.036 55.7643 64.6123 54.9416Z" fill="#878787"/>
<path d="M32.6865 121.507C49.1343 126.392 66.6671 126.423 83.1289 121.598L80.5303 131.991L77.8594 132.54C64.8006 135.218 51.3212 135.218 38.2627 132.539L35.9082 132.056L32.6865 121.507ZM57.2158 120.191C57.4971 120.194 57.7783 120.195 58.0596 120.195C57.4964 120.195 56.9332 120.19 56.3701 120.179C56.234 120.176 56.098 120.17 55.9619 120.167C56.3799 120.178 56.7978 120.187 57.2158 120.191ZM55.5107 120.154C55.1816 120.144 54.8525 120.132 54.5234 120.118C54.8525 120.132 55.1816 120.144 55.5107 120.154ZM54.124 120.102C54.0283 120.097 53.9326 120.095 53.8369 120.09C53.5556 120.076 53.2744 120.06 52.9932 120.043C52.9283 120.039 52.8636 120.033 52.7988 120.029C53.2404 120.057 53.6822 120.081 54.124 120.102ZM52.7471 120.026C52.2671 119.996 51.7872 119.962 51.3076 119.924C51.7872 119.962 52.2671 119.996 52.7471 120.026Z" fill="#878787"/>
</svg>
