<svg width="67" height="31" viewBox="0 0 67 31" fill="none" xmlns="http://www.w3.org/2000/svg">
<mask id="mask0_203_1535" style="mask-type:luminance" maskUnits="userSpaceOnUse" x="0" y="0" width="67" height="31">
<path d="M67 0H0V31H67V0Z" fill="white"/>
</mask>
<g mask="url(#mask0_203_1535)">
<path d="M33 4.60173L18.8449 12.8308V30H18V12.2122L32.3792 4L33 4.60173Z" fill="black"/>
<path d="M21.5808 15L37 6.59375L36.3356 6L21 14.3125L21.5808 15Z" fill="black"/>
<path d="M39 9.57372L23.5696 18L23 17.3383L38.3504 9L39 9.57372Z" fill="black"/>
<path fill-rule="evenodd" clip-rule="evenodd" d="M41.0262 11.8562C41.1072 11.3248 41.1495 10.7776 41.1495 10.2188C41.1495 5.12737 37.6395 1 33.3097 1C30.0743 1 27.2968 3.3045 26.0992 6.59375L25 7.21874C26.09 3.03906 29.398 0 33.3097 0C38.1093 0 42 4.57506 42 10.2188C42 11.8997 41.6548 13.4859 41.0433 14.8846V30H40.1928V13.4663L33.5223 17.3996V30H25.523V20.8749L32.9087 16.6427L41.0262 11.8562ZM26.3734 21.5L32.6719 17.8909V29.2812H26.3734V21.5Z" fill="black"/>
</g>
</svg>
