<svg width="39" height="39" viewBox="0 0 39 39" fill="none" xmlns="http://www.w3.org/2000/svg">
<rect x="0.5" y="0.5" width="38" height="38" rx="19" stroke="black"/>
<path d="M8.51351 29.0004V10.0006H25.9728C25.9728 10.0006 27.5133 9.95988 29.0538 10.477C30.5943 10.9941 30.5943 12.4076 30.5943 12.4076V20.7843C30.5943 20.7843 30.5943 21.2978 29.0538 21.8113C27.5133 22.3248 26.4863 22.3248 26.4863 22.3248C28.2911 24.9318 31.1079 29.0004 31.1079 29.0004H25.9728L21.8647 22.3248H13.1351V29.0004H8" stroke="black"/>
<path d="M13.1348 18.7292V14.6211H24.4319C24.4319 14.6211 25.9725 14.6211 25.9725 15.1346V18.2156C25.9725 18.7292 24.4319 18.7292 24.4319 18.7292H13.1348Z" stroke="black"/>
</svg>
