<svg width="30" height="30" viewBox="0 0 30 30" fill="none" xmlns="http://www.w3.org/2000/svg">
<g clip-path="url(#clip0_2001_1622)">
<path d="M3.51351 24.5006V5.50075H20.9728C20.9728 5.50075 22.5133 5.46004 24.0538 5.97713C25.5943 6.49421 25.5943 7.90774 25.5943 7.90774V16.2845C25.5943 16.2845 25.5943 16.798 24.0538 17.3115C22.5133 17.825 21.4863 17.825 21.4863 17.825C23.2911 20.432 26.1079 24.5006 26.1079 24.5006H20.9728L16.8647 17.825H8.13508V24.5006H3" stroke="white"/>
<path d="M8.13477 14.2292V10.1211H19.4319C19.4319 10.1211 20.9725 10.1211 20.9725 10.6346V13.7157C20.9725 14.2292 19.4319 14.2292 19.4319 14.2292H8.13477Z" stroke="white"/>
</g>
<defs>
<clipPath id="clip0_2001_1622">
<rect width="25" height="20" fill="white" transform="translate(3 5)"/>
</clipPath>
</defs>
</svg>
