<svg width="30" height="30" viewBox="0 0 30 30" fill="none" xmlns="http://www.w3.org/2000/svg">
<g clip-path="url(#clip0_2001_1622)">
<mask id="mask0_2001_1622" style="mask-type:luminance" maskUnits="userSpaceOnUse" x="4" y="6" width="22" height="18">
<path d="M23.3727 6.22239C24.159 5.96038 25.5719 5.70385 25.7106 6.86888C25.6347 8.51839 25.3231 10.1587 25.109 11.7986C24.5658 15.4047 23.9372 18.9983 23.3249 22.5925C23.1139 23.7898 21.6146 24.4095 20.6549 23.6433C18.3487 22.0855 16.0245 20.5429 13.7477 18.949C13.0021 18.1913 13.6931 17.1036 14.359 16.5622C16.2586 14.6903 18.2736 13.0993 20.0739 11.1306C20.5594 9.95806 19.1243 10.9459 18.651 11.2488C16.0506 13.0408 13.5138 14.9424 10.7721 16.5173C9.37168 17.2882 7.73932 16.6291 6.33951 16.199C5.08443 15.6793 3.24568 15.1563 4.32779 14.364C6.54883 13.1406 9.02787 12.1188 11.3444 11.0925C15.3297 9.41154 19.3312 7.76024 23.3727 6.22239Z" fill="white"/>
</mask>
<g mask="url(#mask0_2001_1622)">
<path d="M23.3727 6.22229L23.0566 5.27357L23.0367 5.2802L23.0171 5.28766L23.3727 6.22229ZM25.7106 6.86877L26.7095 6.91473L26.7133 6.8324L26.7036 6.75056L25.7106 6.86877ZM25.109 11.7985L26.0979 11.9474L26.0994 11.9377L26.1006 11.9279L25.109 11.7985ZM23.3249 22.5924L24.3097 22.766L24.3107 22.7604L23.3249 22.5924ZM20.6549 23.6432L21.2789 22.8617L21.2477 22.8368L21.2147 22.8145L20.6549 23.6432ZM13.7477 18.9489L13.035 19.6503L13.0992 19.7155L13.1742 19.7681L13.7477 18.9489ZM14.359 16.5621L14.9898 17.3381L15.0269 17.3079L15.061 17.2744L14.359 16.5621ZM20.0739 11.1305L20.8119 11.8053L20.9305 11.6755L20.9978 11.5131L20.0739 11.1305ZM18.651 11.2487L18.1121 10.4063L18.0977 10.4155L18.0836 10.4252L18.651 11.2487ZM10.7721 16.5172L11.2544 17.3933L11.2623 17.3889L11.2702 17.3843L10.7721 16.5172ZM6.33952 16.1989L5.95699 17.1228L6.00063 17.1409L6.04578 17.1547L6.33952 16.1989ZM4.3278 14.3639L3.84533 13.488L3.78897 13.519L3.73706 13.557L4.3278 14.3639ZM11.3444 11.0924L10.9558 10.171L10.9475 10.1745L10.9393 10.1781L11.3444 11.0924ZM23.3727 6.22229L23.6888 7.17101C23.8495 7.11747 24.0361 7.06644 24.2218 7.03412C24.4123 7.00095 24.5687 6.99335 24.6811 7.00503C24.7964 7.01702 24.7984 7.04173 24.7605 7.01037C24.7001 6.96052 24.709 6.91481 24.7176 6.98698L25.7106 6.86877L26.7036 6.75056C26.6428 6.24021 26.4231 5.78969 26.0343 5.46846C25.6678 5.16573 25.2414 5.0525 24.8879 5.01575C24.2043 4.94468 23.4908 5.1289 23.0566 5.27357L23.3727 6.22229ZM25.7106 6.86877L24.7117 6.82281C24.6383 8.41759 24.3417 9.95065 24.1175 11.669L25.109 11.7985L26.1006 11.9279C26.3044 10.3666 26.6311 8.619 26.7095 6.91473L25.7106 6.86877ZM25.109 11.7985L24.1202 11.6495C23.5788 15.2434 22.9525 18.824 22.3391 22.4245L23.3249 22.5924L24.3107 22.7604C24.9219 19.1724 25.5528 15.5657 26.0979 11.9474L25.109 11.7985ZM23.3249 22.5924L22.34 22.4189C22.3024 22.6327 22.1428 22.8281 21.8987 22.9258C21.6589 23.0219 21.4355 22.9868 21.2789 22.8617L20.6549 23.6432L20.031 24.4247C21.624 25.6965 23.976 24.6596 24.3097 22.766L23.3249 22.5924ZM20.6549 23.6432L21.2147 22.8145C18.8994 21.2507 16.5889 19.7172 14.3212 18.1296L13.7477 18.9489L13.1742 19.7681C15.4602 21.3684 17.7979 22.9201 20.0952 24.4719L20.6549 23.6432ZM13.7477 18.9489L14.4605 18.2474C14.4373 18.2239 14.4301 18.21 14.4287 18.2072C14.4274 18.2045 14.4266 18.2024 14.4258 18.197C14.424 18.1836 14.4214 18.1295 14.4604 18.0254C14.5452 17.7991 14.7553 17.5287 14.9898 17.3381L14.359 16.5621L13.7283 15.7862C13.2968 16.1369 12.8284 16.681 12.5877 17.3234C12.3314 18.0071 12.3124 18.916 13.035 19.6503L13.7477 18.9489ZM14.359 16.5621L15.061 17.2744C15.9918 16.3571 16.9469 15.5124 17.9261 14.6227C18.8964 13.7412 19.8789 12.8256 20.8119 11.8053L20.0739 11.1305L19.3359 10.4557C18.4686 11.4041 17.5434 12.2683 16.5813 13.1424C15.6281 14.0084 14.6258 14.8952 13.6571 15.8499L14.359 16.5621ZM20.0739 11.1305L20.9978 11.5131C21.0756 11.3251 21.1511 11.099 21.1688 10.8608C21.1862 10.6271 21.156 10.2022 20.7988 9.87467C20.4599 9.56389 20.0607 9.56044 19.8755 9.57649C19.6714 9.59418 19.4889 9.65425 19.3611 9.70372C18.8833 9.88862 18.2904 10.2922 18.1121 10.4063L18.651 11.2487L19.19 12.091C19.3272 12.0032 19.4794 11.9016 19.6583 11.7935C19.8412 11.6831 19.9888 11.6053 20.0829 11.5689C20.1337 11.5492 20.1149 11.5632 20.0482 11.569C20.0003 11.5732 19.7124 11.592 19.4471 11.3487C19.1636 11.0888 19.1695 10.7767 19.1743 10.7122C19.1795 10.6432 19.1935 10.6427 19.15 10.7479L20.0739 11.1305ZM18.651 11.2487L18.0836 10.4252C15.4392 12.2475 12.9683 14.1024 10.274 15.6501L10.7721 16.5172L11.2702 17.3843C14.0593 15.7822 16.662 13.8338 19.2185 12.0721L18.651 11.2487ZM10.7721 16.5172L10.2899 15.6412C9.85757 15.8791 9.35129 15.9237 8.7147 15.8212C8.04685 15.7135 7.39718 15.4777 6.63326 15.243L6.33952 16.1989L6.04578 17.1547C6.68167 17.3501 7.54809 17.659 8.39648 17.7957C9.27613 17.9374 10.2863 17.9262 11.2544 17.3933L10.7721 16.5172ZM6.33952 16.1989L6.72205 15.2749C6.43228 15.1549 5.98458 14.9851 5.71901 14.8775C5.39248 14.7452 5.14469 14.632 4.97946 14.5308C4.89824 14.4811 4.87061 14.4542 4.87176 14.4554C4.87414 14.4578 4.8915 14.4757 4.91304 14.5106C4.93515 14.5465 4.96393 14.604 4.98233 14.6819C5.08511 15.1169 4.74907 15.2948 4.91854 15.1708L4.3278 14.3639L3.73706 13.557C3.36547 13.8291 2.85349 14.3695 3.0359 15.1417C3.112 15.4638 3.29108 15.7 3.44393 15.8559C3.59901 16.014 3.77552 16.1388 3.93496 16.2364C4.25104 16.43 4.63063 16.5945 4.96804 16.7312C5.36641 16.8926 5.61922 16.983 5.95699 17.1228L6.33952 16.1989ZM4.3278 14.3639L4.81026 15.2398C6.98159 14.0438 9.39791 13.0485 11.7495 12.0067L11.3444 11.0924L10.9393 10.1781C8.65785 11.1889 6.1161 12.2372 3.84533 13.488L4.3278 14.3639ZM11.3444 11.0924L11.733 12.0138C15.7144 10.3345 19.7033 8.68851 23.7284 7.15692L23.3727 6.22229L23.0171 5.28766C18.9592 6.83177 14.9449 8.4884 10.9558 10.171L11.3444 11.0924Z" fill="white"/>
</g>
</g>
<defs>
<clipPath id="clip0_2001_1622">
<rect width="22" height="18" fill="white" transform="translate(4 6)"/>
</clipPath>
</defs>
</svg>
