<svg width="39" height="39" viewBox="0 0 39 39" fill="none" xmlns="http://www.w3.org/2000/svg">
<path d="M19.5078 0.5L19.508 0H19.5078L19.5078 0.5ZM32.9404 6.07031L33.2941 5.7169V5.7169L32.9404 6.07031ZM38.5 19.5068L39 19.507V19.507L38.5 19.5068ZM19.501 38.5V39H19.501L19.501 38.5ZM19.4932 38.5L19.493 39H19.4932V38.5ZM9.82227 35.8525L10.0774 35.4225L10.0773 35.4225L9.82227 35.8525ZM9.12891 35.4414L9.38392 35.0113L9.2042 34.9048L9.00208 34.9578L9.12891 35.4414ZM1.9375 37.3271L1.45525 37.1951L1.22653 38.0305L2.06432 37.8108L1.9375 37.3271ZM3.85645 30.3184L4.3387 30.4504L4.3967 30.2386L4.27993 30.0525L3.85645 30.3184ZM3.40527 29.5996L3.82875 29.3338L3.82852 29.3334L3.40527 29.5996ZM0.5 19.4912L2.98023e-08 19.491V19.491L0.5 19.4912ZM11.2734 8.71484L11.2734 8.21484H11.2734V8.71484ZM9.72363 9.42969L9.35772 9.08895L9.35766 9.089L9.72363 9.42969ZM7.68945 14.1982L7.18945 14.1982V14.1982H7.68945ZM10.0625 20.1113L10.4603 19.8084L10.4602 19.8083L10.0625 20.1113ZM19.9912 28.7422L20.1867 28.282L20.1867 28.282L19.9912 28.7422ZM23.3037 29.9463L23.4529 29.4691L23.4526 29.469L23.3037 29.9463ZM26.9648 30.1729L26.8921 29.6782L26.8921 29.6782L26.9648 30.1729ZM30.8877 27.4551L31.3577 27.6257L31.3578 27.6255L30.8877 27.4551ZM31.2266 24.7373L31.6541 24.4781L31.6536 24.4772L31.2266 24.7373ZM30.1123 24.0693L30.3332 23.6208L30.3331 23.6207L30.1123 24.0693ZM26.1416 22.21L26.3104 21.7393L26.3101 21.7392L26.1416 22.21ZM24.834 22.4951L24.4201 22.2146L24.42 22.2148L24.834 22.4951ZM22.9932 24.7373L23.3667 25.0696L23.3669 25.0695L22.9932 24.7373ZM21.7344 24.8799L21.9553 24.4314L21.9552 24.4313L21.7344 24.8799ZM17.0605 22.043L16.7308 22.4188L16.7308 22.4188L17.0605 22.043ZM13.8271 18.083L13.3969 18.3378L13.397 18.3379L13.8271 18.083ZM14.082 16.917L14.4319 17.2742L14.432 17.2741L14.082 16.917ZM14.9541 15.915L15.3312 16.2434L15.3312 16.2434L14.9541 15.915ZM15.5352 14.9619L15.9809 15.1884L15.981 15.1882L15.5352 14.9619ZM15.4863 13.96L15.0403 14.1859L15.0405 14.1864L15.4863 13.96ZM13.6953 9.71582L14.1558 9.52097L14.1557 9.52089L13.6953 9.71582ZM12.3877 8.73535L12.363 9.23474L12.3633 9.23475L12.3877 8.73535ZM19.5078 0.5L19.5076 1C24.4499 1.00171 29.0932 2.92742 32.5867 6.42373L32.9404 6.07031L33.2941 5.7169C29.6132 2.03302 24.7156 0.00180492 19.508 2.98023e-08L19.5078 0.5ZM32.9404 6.07031L32.5867 6.42372C36.0802 9.92 38.0019 14.5643 38 19.5066L38.5 19.5068L39 19.507C39.002 14.2994 36.975 9.40077 33.2941 5.7169L32.9404 6.07031ZM38.5 19.5068L38 19.5066C37.9959 29.7032 29.6969 37.9998 19.501 38L19.501 38.5L19.501 39C30.2492 38.9998 38.9957 30.2556 39 19.507L38.5 19.5068ZM19.501 38.5V38H19.4932V38.5V39H19.501V38.5ZM19.4932 38.5L19.4934 38C16.1732 37.9987 12.917 37.107 10.0774 35.4225L9.82227 35.8525L9.56717 36.2826C12.5619 38.059 15.9943 38.9986 19.493 39L19.4932 38.5ZM9.82227 35.8525L10.0773 35.4225L9.38392 35.0113L9.12891 35.4414L8.87389 35.8715L9.56725 36.2826L9.82227 35.8525ZM9.12891 35.4414L9.00208 34.9578L1.81068 36.8435L1.9375 37.3271L2.06432 37.8108L9.25573 35.9251L9.12891 35.4414ZM1.9375 37.3271L2.41975 37.4592L4.3387 30.4504L3.85645 30.3184L3.37419 30.1863L1.45525 37.1951L1.9375 37.3271ZM3.85645 30.3184L4.27993 30.0525L3.82875 29.3338L3.40527 29.5996L2.98179 29.8654L3.43296 30.5842L3.85645 30.3184ZM3.40527 29.5996L3.82852 29.3334C1.977 26.3896 0.998565 22.9864 1 19.4914L0.5 19.4912L2.98023e-08 19.491C-0.00151217 23.1736 1.02967 26.7617 2.98203 29.8658L3.40527 29.5996ZM0.5 19.4912L1 19.4914C1.0042 9.29591 9.30354 1.00011 19.5078 1L19.5078 0.5L19.5078 0C8.75173 0.00011155 0.00443041 8.74305 2.98023e-08 19.491L0.5 19.4912ZM11.2734 8.71484V8.21484C10.7742 8.21484 10.0019 8.3972 9.35772 9.08895L9.72363 9.42969L10.0895 9.77043C10.5107 9.31816 10.9979 9.21484 11.2734 9.21484V8.71484ZM9.72363 9.42969L9.35766 9.089C8.82358 9.66273 7.18956 11.1735 7.18945 14.1982L7.68945 14.1982L8.18945 14.1983C8.18955 11.5968 9.55831 10.3411 10.0896 9.77037L9.72363 9.42969ZM7.68945 14.1982H7.18945C7.18945 15.7193 7.74919 17.1851 8.32261 18.296C8.89975 19.4141 9.51405 20.2165 9.66479 20.4144L10.0625 20.1113L10.4602 19.8083C10.3201 19.6244 9.74787 18.877 9.21121 17.8373C8.67081 16.7904 8.18945 15.4905 8.18945 14.1982H7.68945ZM10.0625 20.1113L9.66468 20.4142C9.92887 20.7612 13.8181 26.6639 19.7958 29.2024L19.9912 28.7422L20.1867 28.282C14.504 25.8687 10.7773 20.2247 10.4603 19.8084L10.0625 20.1113ZM19.9912 28.7422L19.7957 29.2024C21.2036 29.8004 22.3033 30.1579 23.1548 30.4236L23.3037 29.9463L23.4526 29.469C22.616 29.2079 21.5514 28.8616 20.1867 28.282L19.9912 28.7422ZM23.3037 29.9463L23.1545 30.4235C24.6449 30.8894 25.9954 30.8208 27.0376 30.6675L26.9648 30.1729L26.8921 29.6782C25.9318 29.8194 24.7469 29.8735 23.4529 29.4691L23.3037 29.9463ZM26.9648 30.1729L27.0376 30.6675C27.6883 30.5719 28.6145 30.1901 29.43 29.676C30.2324 29.1702 31.0562 28.4563 31.3577 27.6257L30.8877 27.4551L30.4177 27.2845C30.2346 27.7888 29.6554 28.3518 28.8967 28.8301C28.1511 29.3001 27.3582 29.6097 26.8921 29.6782L26.9648 30.1729ZM30.8877 27.4551L31.3578 27.6255C31.6147 26.9168 31.7449 26.2545 31.791 25.7291C31.814 25.4669 31.8168 25.2312 31.8013 25.0356C31.7879 24.8675 31.7563 24.6466 31.6541 24.4781L31.2266 24.7373L30.799 24.9965C30.7694 24.9476 30.7921 24.9594 30.8044 25.1147C30.8145 25.2426 30.8142 25.4211 30.7948 25.6417C30.7562 26.0817 30.6445 26.6587 30.4176 27.2847L30.8877 27.4551ZM31.2266 24.7373L31.6536 24.4772C31.5064 24.2357 31.2673 24.0876 31.0705 23.9813C30.8742 23.8753 30.5951 23.7497 30.3332 23.6208L30.1123 24.0693L29.8914 24.5179C30.2107 24.6751 30.4161 24.7644 30.5953 24.8612C30.774 24.9577 30.8014 25.0005 30.7995 24.9974L31.2266 24.7373ZM30.1123 24.0693L30.3331 23.6207C30.04 23.4764 29.1786 23.0584 28.3235 22.6524C27.4841 22.2539 26.6071 21.8457 26.3104 21.7393L26.1416 22.21L25.9728 22.6806C26.21 22.7657 27.0276 23.1441 27.8946 23.5558C28.7461 23.9601 29.6031 24.376 29.8915 24.5179L30.1123 24.0693ZM26.1416 22.21L26.3101 21.7392C26.0586 21.6492 25.7219 21.5314 25.3778 21.5698C24.9791 21.6144 24.6691 21.8471 24.4201 22.2146L24.834 22.4951L25.2479 22.7756C25.3861 22.5716 25.4637 22.5665 25.4889 22.5637C25.5686 22.5547 25.6922 22.5801 25.9731 22.6807L26.1416 22.21ZM24.834 22.4951L24.42 22.2148C24.0547 22.7543 22.9643 24.0171 22.6194 24.4051L22.9932 24.7373L23.3669 25.0695C23.7001 24.6945 24.8386 23.3802 25.248 22.7754L24.834 22.4951ZM22.9932 24.7373L22.6196 24.405C22.499 24.5405 22.4328 24.5578 22.3953 24.5623C22.3375 24.5692 22.2126 24.5581 21.9553 24.4314L21.7344 24.8799L21.5134 25.3284C21.8369 25.4878 22.1719 25.5959 22.5136 25.5552C22.8756 25.5121 23.1484 25.3151 23.3667 25.0696L22.9932 24.7373ZM21.7344 24.8799L21.9552 24.4313C21.325 24.1211 19.5453 23.5576 17.3903 21.6671L17.0605 22.043L16.7308 22.4188C19.0156 24.4231 20.9813 25.0665 21.5136 25.3285L21.7344 24.8799ZM17.0605 22.043L17.3903 21.6671C15.7223 20.2038 14.5877 18.3859 14.2573 17.8282L13.8271 18.083L13.397 18.3379C13.7446 18.9246 14.9433 20.8507 16.7308 22.4188L17.0605 22.043ZM13.8271 18.083L14.2574 17.8283C14.1991 17.7298 14.1832 17.6677 14.1791 17.6356C14.1755 17.6075 14.1788 17.5889 14.1862 17.5692C14.2105 17.5049 14.2726 17.4303 14.4319 17.2742L14.082 16.917L13.7321 16.5598C13.6006 16.6886 13.3659 16.9111 13.2508 17.2156C13.117 17.5697 13.1666 17.9489 13.3969 18.3378L13.8271 18.083ZM14.082 16.917L14.432 17.2741C14.7107 17.001 15.0734 16.5394 15.3312 16.2434L14.9541 15.915L14.577 15.5867C14.2537 15.958 13.9763 16.3206 13.7321 16.5598L14.082 16.917ZM14.9541 15.915L15.3312 16.2434C15.6718 15.8522 15.7988 15.5467 15.9809 15.1884L15.5352 14.9619L15.0894 14.7354C14.8842 15.1393 14.8173 15.3108 14.577 15.5867L14.9541 15.915ZM15.5352 14.9619L15.981 15.1882C16.2797 14.5997 16.109 14.0818 15.9321 13.7335L15.4863 13.96L15.0405 14.1864C15.0996 14.3026 15.1318 14.3965 15.1408 14.4794C15.1489 14.5534 15.1406 14.6345 15.0893 14.7356L15.5352 14.9619ZM15.4863 13.96L15.9323 13.734C15.87 13.6108 15.5541 12.8629 15.1787 11.9655C14.8106 11.0855 14.3983 10.0941 14.1558 9.52097L13.6953 9.71582L13.2348 9.91067C13.4763 10.4814 13.8864 11.4675 14.2562 12.3514C14.6186 13.2179 14.9563 14.0201 15.0403 14.1859L15.4863 13.96ZM13.6953 9.71582L14.1557 9.52089C13.897 8.90979 13.5925 8.539 13.209 8.36093C12.8676 8.20244 12.4695 8.23876 12.4121 8.23595L12.3877 8.73535L12.3633 9.23475C12.6626 9.2494 12.6825 9.21904 12.7879 9.26795C12.8511 9.2973 13.022 9.40801 13.2349 9.91075L13.6953 9.71582ZM12.3877 8.73535L12.4124 8.23596C12.0609 8.2186 11.6624 8.21484 11.2734 8.21484L11.2734 8.71484L11.2734 9.21484C11.6592 9.21484 12.0373 9.21865 12.363 9.23474L12.3877 8.73535Z" fill="black"/>
</svg>
