<svg width="39" height="45" viewBox="0 0 39 45" fill="none" xmlns="http://www.w3.org/2000/svg">
<path d="M24.649 6.69593L1.38844 19.0579V44.8499H0V18.1286L23.6288 5.79199L24.649 6.69593Z" fill="black"/>
<path d="M4.81883 22.9856L28.8133 10.4179L27.7794 9.53027L3.91504 21.9578L4.81883 22.9856Z" fill="black"/>
<path d="M32.8937 13.9723L8.41442 27.062L7.51074 26.0341L31.8631 13.0811L32.8937 13.9723Z" fill="black"/>
<path fill-rule="evenodd" clip-rule="evenodd" d="M37.2868 17.7254C37.4191 16.9311 37.4882 16.1129 37.4882 15.2775C37.4882 7.66561 31.7574 1.49504 24.6882 1.49504C19.4059 1.49504 14.871 4.94035 12.9158 9.8579L11.1211 10.7923C12.9007 4.54351 18.3017 0 24.6882 0C32.5244 0 38.8767 6.83989 38.8767 15.2775C38.8767 17.7906 38.3132 20.162 37.3147 22.2531V44.8511H35.9261V20.1326L25.0354 26.0131V44.8511H11.975V31.2088L24.0335 24.8815L37.2868 17.7254ZM13.3635 32.1433L23.6469 26.7476V43.7766H13.3635V32.1433Z" fill="black"/>
</svg>
