<svg width="40" height="46" viewBox="0 0 40 46" fill="none" xmlns="http://www.w3.org/2000/svg">
<path d="M25.649 7.69593L2.38844 20.0579V45.8499H1V19.1286L24.6288 6.79199L25.649 7.69593Z" fill="white"/>
<path d="M5.81883 23.9856L29.8133 11.4179L28.7794 10.5303L4.91504 22.9578L5.81883 23.9856Z" fill="white"/>
<path d="M33.8937 14.9723L9.41442 28.062L8.51074 27.0341L32.8631 14.0811L33.8937 14.9723Z" fill="white"/>
<path fill-rule="evenodd" clip-rule="evenodd" d="M38.2868 18.7254C38.4191 17.9311 38.4882 17.1129 38.4882 16.2775C38.4882 8.66561 32.7574 2.49504 25.6882 2.49504C20.4059 2.49504 15.871 5.94035 13.9158 10.8579L12.1211 11.7923C13.9007 5.54351 19.3017 1 25.6882 1C33.5244 1 39.8767 7.83989 39.8767 16.2775C39.8767 18.7906 39.3132 21.162 38.3147 23.2531V45.8511H36.9261V21.1326L26.0354 27.0131V45.8511H12.975V32.2088L25.0335 25.8815L38.2868 18.7254ZM14.3635 33.1433L24.6469 27.7476V44.7766H14.3635V33.1433Z" fill="white"/>
</svg>
