<?xml version="1.0" encoding="utf-8"?><svg viewBox="0 0 36 32" xmlns="http://www.w3.org/2000/svg" xmlns:xlink="http://www.w3.org/1999/xlink"><style>:root>svg{display:none}:root>svg:target{display:block}</style><svg fill="none" viewBox="0 0 36 32" id="arrow" xmlns="http://www.w3.org/2000/svg"><path d="m19.176 31.807-3.068-3.034 10.653-10.654H0v-4.431h26.761L16.108 3.05 19.176 0 35.08 15.903 19.176 31.807Z" fill="#fff"/></svg><svg fill="none" viewBox="0 0 30 30" id="rutube" xmlns="http://www.w3.org/2000/svg"><g clip-path="url(#ba)" stroke="#fff"><path d="M3.514 24.5v-19h17.459s1.54-.04 3.08.477c1.541.517 1.541 1.93 1.541 1.93v8.378s0 .513-1.54 1.026c-1.54.514-2.568.514-2.568.514l4.622 6.676h-5.135l-4.108-6.676h-8.73v6.676H3"/><path d="M8.135 14.23v-4.11h11.297s1.54 0 1.54.514v3.08c0 .514-1.54.514-1.54.514H8.135Z"/></g><defs><clipPath id="ba"><path fill="#fff" transform="translate(3 5)" d="M0 0h25v20H0z"/></clipPath></defs></svg><svg fill="none" viewBox="0 0 30 30" id="tg" xmlns="http://www.w3.org/2000/svg"><g clip-path="url(#ca)"><mask id="cb" style="mask-type:luminance" maskUnits="userSpaceOnUse" x="4" y="6" width="22" height="18"><path d="M23.373 6.222c.786-.262 2.199-.518 2.338.647-.076 1.65-.388 3.29-.602 4.93-.543 3.606-1.172 7.2-1.784 10.794-.211 1.197-1.71 1.817-2.67 1.05-2.306-1.558-4.63-3.1-6.907-4.694-.746-.758-.055-1.845.611-2.387 1.9-1.872 3.915-3.463 5.715-5.431.485-1.173-.95-.185-1.423.118-2.6 1.792-5.137 3.693-7.879 5.268-1.4.771-3.033.112-4.432-.318-1.256-.52-3.094-1.043-2.012-1.835 2.22-1.223 4.7-2.245 7.016-3.272 3.986-1.68 7.987-3.332 12.029-4.87Z" fill="#fff"/></mask><g mask="url(#cb)"><path d="m23.373 6.222-.316-.948-.02.006-.02.008.356.934Zm2.338.647.998.046.004-.083-.01-.081-.992.118Zm-.602 4.93.989.148.001-.01.002-.01-.992-.128Zm-1.784 10.793.985.174v-.006l-.985-.168Zm-2.67 1.051.624-.781-.031-.025-.033-.023-.56.83Zm-6.907-4.694-.713.701.064.066.075.052.574-.82Zm.611-2.387.63.776.038-.03.034-.034-.702-.712Zm5.715-5.432.738.675.118-.13.068-.162-.924-.383Zm-1.423.119-.539-.843-.014.01-.014.01.567.823Zm-7.879 5.268.482.876.008-.004.008-.005-.498-.867ZM6.34 16.2l-.383.924.044.018.045.014.294-.956Zm-2.012-1.835-.483-.876-.056.031-.052.038.59.807Zm7.016-3.272-.388-.921-.008.004-.009.003.405.914Zm12.029-4.87.316.949c.16-.054.347-.105.533-.137.19-.033.347-.04.46-.029.114.012.116.037.079.005-.06-.05-.052-.095-.043-.023l.993-.118.993-.118c-.061-.51-.28-.961-.67-1.283-.366-.302-.793-.415-1.146-.452-.684-.071-1.397.113-1.831.258l.316.948Zm2.338.647-1-.046c-.073 1.595-.37 3.128-.593 4.846l.991.13.992.129c.203-1.561.53-3.309.608-5.013l-.998-.046Zm-.602 4.93-.989-.15c-.541 3.594-1.168 7.175-1.78 10.775l.985.168.986.168c.61-3.588 1.242-7.194 1.787-10.813l-.989-.148Zm-1.784 10.793-.985-.173a.69.69 0 0 1-.441.507c-.24.096-.463.06-.62-.064l-.624.781-.624.782c1.593 1.271 3.945.235 4.279-1.659l-.985-.174Zm-2.67 1.051.56-.829c-2.316-1.563-4.626-3.097-6.894-4.684l-.573.819-.574.82c2.286 1.6 4.624 3.151 6.921 4.703l.56-.829Zm-6.907-4.694.713-.702a.168.168 0 0 1-.032-.04.03.03 0 0 1-.003-.01.389.389 0 0 1 .034-.172c.085-.226.295-.496.53-.687l-.631-.776-.63-.776c-.432.35-.9.895-1.141 1.537-.257.684-.276 1.593.447 2.327l.713-.701Zm.611-2.387.702.712c.93-.917 1.886-1.762 2.865-2.651.97-.882 1.953-1.797 2.886-2.818l-.738-.675-.738-.674c-.867.948-1.793 1.812-2.755 2.686-.953.866-1.955 1.753-2.924 2.708l.702.712Zm5.715-5.432.924.383a2.15 2.15 0 0 0 .17-.652c.018-.234-.012-.659-.37-.986a1.2 1.2 0 0 0-.922-.299 1.896 1.896 0 0 0-.515.128c-.478.185-1.07.588-1.249.702l.539.843.539.842c.137-.088.29-.19.468-.297.183-.11.33-.189.425-.225.05-.02.032-.006-.035 0a.804.804 0 0 1-.6-.22.807.807 0 0 1-.274-.637c.006-.069.02-.07-.024.036l.924.383Zm-1.423.119-.567-.824c-2.645 1.822-5.116 3.677-7.81 5.225l.498.867.498.867c2.79-1.602 5.392-3.55 7.948-5.312l-.567-.823Zm-7.879 5.268-.482-.876c-.432.238-.939.283-1.575.18-.668-.107-1.318-.343-2.082-.578l-.293.956-.294.956c.636.195 1.502.504 2.35.64.88.142 1.89.131 2.858-.402l-.482-.876ZM6.34 16.2l.382-.924c-.29-.12-.737-.29-1.003-.398a5.407 5.407 0 0 1-.74-.346c-.08-.05-.108-.077-.107-.076.002.003.02.02.041.056.022.036.05.093.07.17.102.436-.234.614-.064.49l-.591-.807-.59-.807c-.373.272-.885.813-.702 1.585.076.322.255.558.408.714.155.158.332.283.491.38.316.194.696.358 1.033.495.398.162.651.252.989.392l.383-.924Zm-2.012-1.835.482.876c2.172-1.196 4.588-2.191 6.94-3.233l-.406-.915-.405-.914c-2.281 1.01-4.823 2.06-7.094 3.31l.483.876Zm7.016-3.272.389.922c3.981-1.68 7.97-3.325 11.995-4.857l-.355-.935-.356-.934c-4.058 1.544-8.072 3.2-12.061 4.883l.388.921Z" fill="#fff"/></g></g><defs><clipPath id="ca"><path fill="#fff" transform="translate(4 6)" d="M0 0h22v18H0z"/></clipPath></defs></svg><svg fill="none" viewBox="0 0 30 30" id="vk" xmlns="http://www.w3.org/2000/svg"><g clip-path="url(#da)"><mask id="db" style="mask-type:luminance" maskUnits="userSpaceOnUse" x="5" y="9" width="21" height="13"><path d="M8.041 9c.569 0 .787.24 1.006.875 1.115 3.216 2.975 6.037 3.741 6.038.284 0 .416-.132.416-.853v-3.326c-.087-1.53-.897-1.662-.897-2.209 0-.262.219-.525.569-.525h3.544c.481 0 .656.262.656.831v4.485c0 .481.198.657.35.657.285 0 .526-.176 1.05-.7 1.616-1.813 2.774-4.606 2.779-4.617.153-.328.416-.635.984-.635h2.253c.678 0 .832.351.679.833-.284 1.306-3.016 5.17-3.02 5.206-.24.393-.328.569 0 1.006.241.329 1.029 1.007 1.554 1.62.963 1.093 1.706 2.012 1.903 2.646.175.634-.13.963-.787.963h-2.254c-.853 0-1.116-.7-2.647-2.232-1.334-1.29-1.925-1.465-2.253-1.465-.46 0-.59.109-.59.765v2.035c0 .546-.176.875-1.62.875-2.384 0-5.031-1.444-6.89-4.134C5.766 13.202 5 10.227 5 9.635 5 9.307 5.11 9 5.766 9H8.04Z" fill="#fff"/></mask><g mask="url(#db)"><path d="m9.047 9.875-.945.326v.002l.945-.328Zm4.157 1.86h1v-.03l-.002-.028-.998.057Zm5.273 2.538.707.707.02-.02.019-.022-.746-.665Zm2.778-4.617-.906-.423-.01.02-.008.02.924.383Zm3.916.198-.953-.304-.014.045-.01.046.977.213Zm-3.02 5.206.854.521.116-.19.024-.222-.994-.11Zm0 1.006.807-.591-.007-.009-.8.6Zm1.554 1.62-.76.65.01.01.75-.66Zm1.903 2.646.964-.266-.004-.015-.005-.015-.955.296Zm-5.688-1.268.707-.708-.006-.006-.006-.005-.695.719ZM8.566 17.139l.823-.569-.008-.01-.815.579ZM8.041 9v1c.075 0 .089.008.068.002a.314.314 0 0 1-.107-.063c-.03-.027-.028-.037-.005.005.024.046.059.124.105.257l.945-.326.945-.326c-.117-.34-.292-.769-.643-1.088C8.947 8.095 8.47 8 8.04 8v1Zm1.006.875-.945.328c.582 1.677 1.359 3.256 2.101 4.431.37.585.748 1.097 1.11 1.477.18.188.377.369.589.509.193.127.503.293.885.293l.001-1v-1c.191 0 .276.078.217.038a1.58 1.58 0 0 1-.243-.219c-.238-.25-.537-.644-.868-1.167-.658-1.04-1.369-2.48-1.902-4.018l-.945.328Zm3.741 6.038v1c.135 0 .36-.013.596-.12a1.28 1.28 0 0 0 .593-.55c.208-.374.227-.83.227-1.183h-2c0 .155-.007.245-.014.292-.008.052-.009.005.039-.08a.742.742 0 0 1 .498-.352c.037-.007.06-.007.062-.007v1Zm.416-.853h1v-3.326h-2v3.326h1Zm0-3.326.998-.057c-.055-.976-.356-1.573-.671-2.005a6.774 6.774 0 0 0-.182-.235 2.202 2.202 0 0 1-.089-.115c-.018-.027.046.06.047.203h-2c0 .416.165.725.302.925.063.092.132.178.178.235.052.066.09.113.128.165.111.153.259.387.29.941l1-.057Zm-.897-2.209h1c0 .29-.23.475-.431.475V8c-.902 0-1.57.71-1.57 1.525h1ZM12.876 9v1h3.544V8h-3.544v1Zm3.544 0v1c.034 0 .002.005-.065-.021a.537.537 0 0 1-.223-.172c-.056-.073-.067-.129-.066-.123a.76.76 0 0 1 .01.147h2c0-.341-.043-.828-.351-1.234-.36-.474-.883-.597-1.305-.597v1Zm.656.831h-1v4.485h2V9.831h-1Zm0 4.485h-1c0 .365.073.741.283 1.06.215.325.59.597 1.068.597v-2a.72.72 0 0 1 .602.302c.073.11.047.158.047.041h-1Zm.35.657v1c.391 0 .715-.135.997-.326.248-.168.499-.405.76-.667l-.706-.707-.707-.708c-.126.126-.225.22-.306.293a1.684 1.684 0 0 1-.164.134c-.029.02-.024.012.008 0a.377.377 0 0 1 .119-.02v1Zm1.05-.7.747.665c1.741-1.953 2.954-4.894 2.956-4.899l-.924-.383-.924-.383c.005-.012-.272.658-.744 1.547-.477.898-1.127 1.968-1.857 2.787l.747.666Zm2.779-4.617.906.423c.037-.08.054-.08.033-.065a.119.119 0 0 1-.022.013.389.389 0 0 1 .068-.005v-2c-.478 0-.904.133-1.251.396a2.135 2.135 0 0 0-.64.815l.906.423Zm.984-.635v1h2.253v-2H22.24v1Zm2.253 0v1c.09 0 .1.013.062-.001a.518.518 0 0 1-.228-.187.53.53 0 0 1-.1-.278c-.002-.046.007-.052-.008-.005l.953.304.953.303c.112-.352.21-.946-.163-1.476-.382-.543-1.003-.66-1.469-.66v1Zm.679.833-.977-.213c-.038.172-.195.546-.493 1.096-.28.518-.635 1.102-.99 1.66a64.272 64.272 0 0 1-.955 1.459l-.313.462a19.262 19.262 0 0 0-.13.194 1.343 1.343 0 0 0-.06.11.965.965 0 0 0-.095.328l.993.11.994.11a.97.97 0 0 1-.14.409l.011-.017.083-.122.315-.467c.264-.391.62-.927.987-1.504.365-.576.747-1.204 1.058-1.78.294-.542.585-1.142.69-1.623l-.978-.212Zm-3.02 5.206-.853-.522c-.088.144-.325.5-.357.935-.038.513.2.912.41 1.193l.8-.6.8-.6a.857.857 0 0 1-.047-.068c-.007-.012-.005-.01.002.005a.542.542 0 0 1 .03.217c-.007.09-.033.14-.027.126a5.027 5.027 0 0 1 .096-.165l-.854-.521Zm0 1.006-.806.592c.182.247.519.572.776.825.3.294.596.586.825.853l.76-.65.758-.651c-.295-.345-.656-.699-.942-.98-.328-.321-.505-.5-.564-.58l-.807.591Zm1.554 1.62-.75.66c.477.543.881 1.02 1.186 1.431.32.43.467.705.512.852l.955-.297.955-.297c-.151-.488-.474-.99-.816-1.45-.357-.48-.807-1.01-1.291-1.56l-.75.66Zm1.903 2.646-.964.266c.02.07.01.075.015.033a.447.447 0 0 1 .104-.226.388.388 0 0 1 .157-.117c.013-.004-.013.007-.099.007v2c.455 0 1.056-.11 1.469-.598.436-.515.415-1.15.282-1.63l-.964.265Zm-.787.963v-1h-2.254v2h2.254v-1Zm-2.254 0v-1c-.06 0-.074-.009-.089-.017a1.293 1.293 0 0 1-.27-.23c-.16-.16-.337-.362-.606-.66a26.48 26.48 0 0 0-.975-1.032l-.707.707-.707.708c.365.365.656.682.904.957.238.264.467.524.671.73.208.21.452.427.752.587.322.17.661.25 1.027.25v-1Zm-2.647-2.232.695-.718c-1.353-1.309-2.195-1.747-2.948-1.747v2c-.096 0 .242-.088 1.558 1.184l.695-.718Zm-2.253-1.465v-1c-.214 0-.823-.004-1.239.5a1.49 1.49 0 0 0-.306.682 3.155 3.155 0 0 0-.046.583h2c0-.14.008-.198.01-.21.002-.01-.014.095-.115.218a.7.7 0 0 1-.333.22c-.051.014-.062.007.029.007v-1Zm-.59.765h-1v2.035h2v-2.035h-1Zm0 2.035h-1c0 .098-.011.083.009.027a.457.457 0 0 1 .165-.215c.044-.03.035-.007-.109.02a4.202 4.202 0 0 1-.685.043v2c.724 0 1.41-.067 1.909-.402.655-.44.71-1.11.71-1.473h-1Zm-1.62.875v-1c-1.99 0-4.354-1.223-6.068-3.703l-.823.569-.822.568c2.005 2.901 4.934 4.566 7.713 4.566v-1Zm-6.89-4.134.814-.58c-1.356-1.907-2.21-3.569-2.723-4.809a12.992 12.992 0 0 1-.53-1.51 5.487 5.487 0 0 1-.106-.453C6 9.665 6 9.62 6 9.634H4c0 .289.08.694.199 1.133.128.468.325 1.058.61 1.747.57 1.38 1.499 3.174 2.942 5.204l.815-.58ZM5 9.635h1c0-.033.003-.016-.008.026a.526.526 0 0 1-.123.214c-.16.174-.301.125-.103.125V8c-.459 0-.982.105-1.362.514-.371.4-.404.878-.404 1.12h1ZM5.766 9v1H8.04V8H5.766v1Z" fill="#fff"/></g></g><defs><clipPath id="da"><path fill="#fff" transform="translate(5 9)" d="M0 0h21v13H0z"/></clipPath></defs></svg><svg fill="none" viewBox="0 0 30 30" id="youtube" xmlns="http://www.w3.org/2000/svg"><g clip-path="url(#ea)"><path d="M15.133 7.5V8h.017a105.291 105.291 0 0 1 .992.007c.617.007 1.455.02 2.342.047.887.028 1.82.068 2.625.129.82.061 1.467.14 1.81.235l.132-.482.132-.483c-.448-.123-1.186-.207-1.999-.268a62.843 62.843 0 0 0-2.67-.13A123.568 123.568 0 0 0 15.152 7h-.019v.5Zm7.918.436-.133.482c.695.19 1.252.756 1.44 1.483l.485-.126.484-.126a3.072 3.072 0 0 0-2.144-2.196l-.132.483Zm1.792 1.84-.484.125c.197.756.302 1.962.355 3.013a43.361 43.361 0 0 1 .053 1.834v.036a121.528 121.528 0 0 0 1 0v-.042l-.001-.112-.006-.41a44.71 44.71 0 0 0-.047-1.358c-.053-1.047-.16-2.347-.386-3.214l-.484.126Zm.424 5.008h-.5c0 .016-.001.855-.054 1.89-.053 1.046-.158 2.241-.354 2.993l.484.126.484.126c.224-.862.332-2.151.385-3.195.054-1.057.055-1.916.055-1.94h-.5Zm-.424 5.009-.484-.126a2.075 2.075 0 0 1-1.44 1.484l.132.482.132.482a3.074 3.074 0 0 0 2.144-2.196l-.484-.126Zm-1.792 1.84-.133-.482c-.342.094-.988.173-1.809.235-.806.06-1.738.1-2.625.127a121.447 121.447 0 0 1-3.28.054h-.07l-.001.5v.5h.277a117.14 117.14 0 0 0 3.103-.054 62.921 62.921 0 0 0 2.67-.13c.813-.061 1.55-.145 2-.268l-.133-.482Zm-7.918.434v-.5c-.015 0-1.596 0-3.366-.054a61.513 61.513 0 0 1-2.618-.128c-.817-.061-1.46-.14-1.802-.234l-.132.482-.133.482c.447.123 1.183.206 1.992.267.824.062 1.77.103 2.662.13 1.786.055 3.377.055 3.397.055v-.5Zm-7.918-.434.132-.482a2.075 2.075 0 0 1-1.44-1.484l-.484.126-.484.126a3.074 3.074 0 0 0 2.143 2.196l.133-.482Zm-1.792-1.84.484-.126c-.196-.751-.3-1.947-.354-2.994C5.5 15.64 5.5 14.8 5.5 14.784h-1c0 .024 0 .882.054 1.94.053 1.044.16 2.333.385 3.195l.484-.126ZM5 14.784h.5v-.036a24.778 24.778 0 0 1 .006-.509c.007-.339.02-.807.046-1.325.053-1.052.157-2.256.355-3.012l-.484-.127-.484-.126c-.226.867-.333 2.167-.386 3.214a44.298 44.298 0 0 0-.053 1.88v.041H5Zm.423-5.009.484.127a2.074 2.074 0 0 1 1.44-1.484l-.132-.482-.132-.483A3.073 3.073 0 0 0 4.939 9.65l.484.126Zm1.792-1.84.132.483c.341-.094.985-.173 1.802-.235.803-.06 1.732-.1 2.618-.128C13.537 8 15.117 8 15.133 8V7c-.02 0-1.611 0-3.397.055-.893.028-1.838.069-2.662.131-.81.06-1.544.144-1.991.267l.132.483Z" fill="#fff"/><path d="M13.232 18.268v-6.333L18.3 15.1l-5.067 3.167Z" stroke="#fff"/></g><defs><clipPath id="ea"><path fill="#fff" transform="translate(4.5 7)" d="M0 0h22v16H0z"/></clipPath></defs></svg></svg>