<?xml version="1.0" encoding="utf-8"?><svg viewBox="0 0 152 152" xmlns="http://www.w3.org/2000/svg" xmlns:xlink="http://www.w3.org/1999/xlink"><style>:root>svg{display:none}:root>svg:target{display:block}</style><svg fill="none" viewBox="0 0 36 32" id="arrow" xmlns="http://www.w3.org/2000/svg"><path d="m19.176 31.807-3.068-3.034 10.653-10.654H0v-4.431h26.761L16.108 3.05 19.176 0 35.08 15.903 19.176 31.807Z" fill="#fff"/></svg><svg fill="none" viewBox="0 0 152 152" id="dzen" xmlns="http://www.w3.org/2000/svg"><circle cx="76" cy="76" r="74" stroke="#000" stroke-width="4"/><path d="M76 19c.67 0 1.336.012 2 .035V34c0 22.091 17.909 40 40 40h14.965a57.76 57.76 0 0 1 0 4H118c-22.091 0-40 17.909-40 40v14.964c-.664.023-1.33.036-2 .036-.67 0-1.336-.013-2-.036V118c0-22.091-17.909-40-40-40H19.035a58.01 58.01 0 0 1 0-4H34c22.091 0 40-17.909 40-40V19.035A58.01 58.01 0 0 1 76 19Z" fill="#000"/></svg><svg fill="none" viewBox="0 0 38 38" id="max" xmlns="http://www.w3.org/2000/svg"><g clip-path="url(#ca)"><mask id="cb" style="mask-type:luminance" maskUnits="userSpaceOnUse" x="0" y="0" width="38" height="38"><path d="M19 0c10.493 0 19 8.507 19 19s-8.507 19-19 19S0 29.493 0 19 8.507 0 19 0Z" fill="#fff"/></mask><g mask="url(#cb)"><path d="M19 0v1c9.941 0 18 8.059 18 18h2C39 7.954 30.046-1 19-1v1Zm19 19h-1c0 9.941-8.059 18-18 18v2c11.046 0 20-8.954 20-20h-1ZM19 38v-1C9.059 37 1 28.941 1 19h-2c0 11.046 8.954 20 20 20v-1ZM0 19h1C1 9.059 9.059 1 19 1v-2C7.954-1-1 7.954-1 19h1Z" fill="#000"/></g><path d="M19.216 7.526c6.197-.031 11.063 4.892 10.979 11.117-.121 6.177-4.93 10.737-10.947 10.752h-.014c-2.182.07-3.583-.748-4.635-1.54l-.404-.304-.3.41c-.144.196-.444.46-.856.724a5.97 5.97 0 0 1-1.353.64c-.477.151-.902.202-1.219.147-.29-.051-.473-.184-.577-.437-.03-.075-.045-.198-.048-.496-.003-.27 0-.634-.058-1.065-.167-1.22-.476-2.301-.76-3.346-.286-1.052-.55-2.076-.66-3.24-.056-.601-.11-1.184-.097-1.768v-.013l-.001-.015c-.188-5.2 3.309-11.188 10.95-11.566Z" stroke="#000"/><path d="M19.263 13.144a5.379 5.379 0 0 1 5.379 5.379c0 2.956-2.394 5.248-5.38 5.248-1.039 0-2.021-.378-2.87-.905l-.342-.212-.28.288a7.79 7.79 0 0 1-.743.68c-.161.133-.272.2-.342.23l-.016.005a1.247 1.247 0 0 1-.12-.202c-.245-.492-.51-1.46-.6-2.561-.092-1.105-.062-1.534 0-2.541.184-3.024 2.377-5.41 5.314-5.41Z" stroke="#000"/></g><defs><clipPath id="ca"><path fill="#fff" d="M0 0h38v38H0z"/></clipPath></defs></svg><svg fill="none" viewBox="0 0 39 39" id="rutube" xmlns="http://www.w3.org/2000/svg"><rect x=".5" y=".5" width="38" height="38" rx="19" stroke="#000"/><path d="M8.514 29V10h17.459s1.54-.04 3.08.477c1.541.517 1.541 1.93 1.541 1.93v8.377s0 .514-1.54 1.027c-1.54.514-2.568.514-2.568.514L31.108 29h-5.135l-4.108-6.675h-8.73V29H8" stroke="#000"/><path d="M13.135 18.73v-4.11h11.297s1.54 0 1.54.514v3.08c0 .514-1.54.514-1.54.514H13.135Z" stroke="#000"/></svg><svg fill="none" viewBox="0 0 15 8" id="slider-toggle" xmlns="http://www.w3.org/2000/svg"><path d="M6.14 7.893V0L0 3.947l6.14 3.946Zm2.63 0V0l6.14 3.947-6.14 3.946Z" fill="#fff"/></svg><svg fill="none" viewBox="0 0 38 38" id="tg" xmlns="http://www.w3.org/2000/svg"><mask id="fa" fill="#fff"><path d="M19 0c10.493 0 19 8.507 19 19s-8.507 19-19 19S0 29.493 0 19 8.507 0 19 0Zm9.46 12.435c-.139-1.166-1.552-.91-2.338-.648-4.041 1.538-8.043 3.19-12.028 4.871-2.317 1.026-4.797 2.048-7.018 3.272-1.081.792.758 1.315 2.013 1.835 1.4.43 3.032 1.089 4.432.318 2.742-1.575 5.279-3.477 7.88-5.268.473-.304 1.907-1.291 1.421-.119-1.8 1.969-3.814 3.56-5.714 5.431-.666.541-1.357 1.63-.612 2.388 2.277 1.593 4.601 3.136 6.907 4.694.96.766 2.46.146 2.671-1.05.612-3.595 1.24-7.189 1.783-10.795.215-1.64.527-3.28.603-4.93Z"/></mask><path d="M19 0v-1 1Zm19 19h1-1ZM19 38v1-1ZM0 19h-1 1Zm28.46-6.565.999.045.004-.082-.01-.082-.993.119Zm-2.338-.648-.316-.949-.02.007-.02.007.356.935Zm-12.028 4.871-.389-.921-.008.003-.008.004.405.914ZM7.076 19.93l-.482-.876-.057.03-.052.039.591.807Zm2.013 1.835-.383.924.044.018.045.014.294-.956Zm4.432.318.483.876.008-.004.008-.005-.498-.867Zm7.88-5.268-.54-.843-.014.01-.014.009.567.823Zm1.421-.119.738.675.119-.13.067-.162-.924-.383Zm-5.714 5.431.631.776.037-.03.034-.034-.702-.712Zm-.612 2.388-.713.701.065.065.075.053.573-.82Zm6.907 4.694.624-.782-.03-.024-.034-.023-.56.829Zm2.671-1.05.985.173.001-.006-.986-.168Zm1.783-10.795.99.15v-.01l.002-.01-.992-.13ZM19 0v1c9.941 0 18 8.059 18 18h2C39 7.954 30.046-1 19-1v1Zm19 19h-1c0 9.941-8.059 18-18 18v2c11.046 0 20-8.954 20-20h-1ZM19 38v-1C9.06 37 1 28.94 1 19h-2c0 11.046 8.955 20 20 20v-1ZM0 19h1C1 9.06 9.06 1 19 1v-2C7.955-1-1 7.954-1 19h1Zm28.46-6.565.993-.119c-.06-.51-.28-.96-.669-1.282-.366-.303-.793-.416-1.146-.453-.684-.071-1.398.113-1.832.257l.316.95.316.948c.16-.054.347-.105.533-.137.19-.033.347-.04.46-.029.114.012.116.037.079.006-.06-.05-.052-.096-.043-.023l.993-.118Zm-2.338-.648-.356-.935c-4.058 1.545-8.072 3.202-12.06 4.885l.388.921.388.922c3.982-1.68 7.97-3.327 11.996-4.858l-.356-.935Zm-12.028 4.871-.405-.914c-2.282 1.01-4.824 2.059-7.095 3.31l.482.876.483.876c2.171-1.196 4.588-2.192 6.94-3.233l-.405-.915ZM7.076 19.93l-.59-.807c-.372.272-.884.813-.701 1.585.076.322.255.558.408.714.155.158.332.283.491.38.316.194.696.358 1.033.495.398.161.652.252.99.392l.382-.924.382-.924c-.29-.12-.737-.29-1.003-.398a5.406 5.406 0 0 1-.74-.347.746.746 0 0 1-.107-.075.583.583 0 0 1 .11.226c.103.435-.233.613-.064.49l-.59-.807Zm2.013 1.835-.294.956c.636.195 1.502.504 2.35.64.88.142 1.89.13 2.859-.402l-.482-.876-.483-.876c-.432.238-.938.282-1.575.18-.668-.108-1.318-.343-2.081-.578l-.294.956Zm4.432.318.499.867c2.789-1.602 5.391-3.55 7.948-5.312l-.568-.824-.567-.823c-2.644 1.822-5.115 3.677-7.81 5.225l.498.867Zm7.88-5.268.538.842c.138-.088.29-.19.469-.298.183-.11.33-.188.424-.224.05-.02.032-.006-.035 0a.805.805 0 0 1-.602-.221.807.807 0 0 1-.272-.636c.005-.07.019-.07-.025.036l.924.382.924.383a2.15 2.15 0 0 0 .171-.652c.018-.233-.012-.658-.369-.986a1.199 1.199 0 0 0-.924-.299 1.9 1.9 0 0 0-.514.128c-.478.184-1.07.588-1.249.702l.54.842Zm1.421-.119-.738-.675c-.867.949-1.792 1.813-2.754 2.687-.953.866-1.955 1.752-2.923 2.707l.701.712.702.712c.931-.917 1.886-1.761 2.865-2.65.97-.882 1.952-1.798 2.885-2.818l-.738-.675Zm-5.714 5.431-.63-.776c-.432.35-.9.895-1.141 1.537-.257.684-.277 1.593.446 2.328l.713-.701.713-.702a.167.167 0 0 1-.032-.04.03.03 0 0 1-.003-.01.39.39 0 0 1 .035-.172c.085-.227.296-.498.53-.688l-.63-.776Zm-.612 2.388-.573.819c2.286 1.6 4.623 3.152 6.92 4.704l.56-.829.56-.829c-2.315-1.563-4.626-3.097-6.893-4.685l-.574.82Zm6.907 4.694-.624.782c1.593 1.271 3.946.235 4.28-1.66l-.985-.173-.985-.173a.691.691 0 0 1-.441.507c-.24.096-.464.06-.62-.065l-.625.782Zm2.671-1.05.986.167c.611-3.588 1.241-7.195 1.786-10.813l-.989-.149-.988-.149c-.542 3.594-1.167 7.175-1.78 10.775l.985.168Zm1.783-10.795.992.13c.204-1.56.532-3.31.61-5.014l-.999-.045-.999-.046c-.073 1.595-.37 3.127-.595 4.846l.991.13Z" fill="#000" mask="url(#fa)"/></svg><svg fill="none" viewBox="0 0 18 18" id="tick" xmlns="http://www.w3.org/2000/svg"><path d="M12.56 5a.414.414 0 0 0-.34.216l-3.944 6.631L5.72 9.421a.392.392 0 0 0-.426-.12.449.449 0 0 0-.29.363.483.483 0 0 0 .165.448l2.922 2.779a.394.394 0 0 0 .332.104.42.42 0 0 0 .29-.205l4.213-7.07a.499.499 0 0 0 .02-.485A.414.414 0 0 0 12.56 5Z" fill="#F8F8F8"/></svg><svg fill="none" viewBox="0 0 38 38" id="vk" xmlns="http://www.w3.org/2000/svg"><mask id="ha" fill="#fff"><path d="M19 0c10.493 0 19 8.507 19 19s-8.507 19-19 19S0 29.493 0 19 8.507 0 19 0Z"/></mask><path d="M19 0v1c9.941 0 18 8.059 18 18h2C39 7.954 30.046-1 19-1v1Zm19 19h-1c0 9.941-8.059 18-18 18v2c11.046 0 20-8.954 20-20h-1ZM19 38v-1C9.059 37 1 28.941 1 19h-2c0 11.046 8.954 20 20 20v-1ZM0 19h1C1 9.059 9.059 1 19 1v-2C7.954-1-1 7.954-1 19h1Z" fill="#000" mask="url(#ha)"/><mask id="hb" fill="#fff"><path d="M11.184 13.758c.568 0 .787.24 1.006.875 1.115 3.215 2.975 6.037 3.74 6.038.285 0 .417-.132.417-.854v-3.325c-.088-1.53-.897-1.662-.898-2.209 0-.262.22-.525.57-.525h3.544c.48 0 .656.262.656.83v4.486c0 .481.197.656.35.656.285 0 .525-.175 1.05-.7 1.616-1.812 2.774-4.605 2.779-4.616.153-.328.415-.635.984-.635h2.253c.678 0 .832.351.678.832-.283 1.307-3.015 5.17-3.02 5.206-.24.394-.327.57 0 1.007.242.328 1.03 1.007 1.555 1.62.962 1.093 1.706 2.012 1.903 2.646.175.634-.131.963-.787.963H25.71c-.853 0-1.116-.7-2.648-2.232-1.334-1.29-1.924-1.466-2.252-1.466-.46 0-.591.11-.591.766v2.034c0 .547-.175.876-1.62.876-2.384 0-5.03-1.444-6.89-4.134-2.8-3.937-3.566-6.913-3.566-7.504 0-.329.109-.635.765-.635h2.276Z"/></mask><path d="M11.184 13.758v-1 1Zm1.006.875-.946.326v.002l.946-.328Zm3.74 6.038v1-1Zm.417-4.179h1v-.028l-.002-.029-.998.057Zm-.898-2.209h-1v.001h1Zm4.77.306h1-1Zm0 4.485h-1 1Zm.35.656v1h.001v-1Zm1.05-.7.707.707.02-.02.02-.021-.747-.666Zm2.779-4.616-.907-.423-.009.02-.008.02.924.383Zm.984-.635v-1 1Zm2.931.832-.953-.303-.014.045-.01.046.978.212Zm-3.02 5.206.854.522.117-.19.024-.222-.994-.11Zm0 1.007.807-.591-.006-.009-.8.6Zm1.555 1.62-.76.65.009.01.75-.66Zm1.903 2.646.964-.266-.004-.016-.005-.015-.955.297Zm-.787.963v1-1Zm-2.254 0v1-1Zm-2.648-2.232.708-.707-.006-.006-.006-.006-.695.72Zm-2.252-1.466v-1 1Zm-.591.766h-1 1Zm-1.62 2.91v1-1Zm-6.89-4.134.823-.57-.008-.01-.815.58Zm-3.566-7.504h-1 1Zm.765-.635v-1 1Zm2.276 0v1c.075 0 .088.008.068.002a.32.32 0 0 1-.107-.063c-.03-.027-.029-.038-.006.005.025.046.06.123.105.257l.946-.326.945-.326c-.118-.34-.293-.769-.644-1.089-.401-.366-.877-.46-1.307-.46v1Zm1.006.875-.945.328c.582 1.677 1.358 3.256 2.1 4.43.37.585.75 1.098 1.11 1.478.18.188.378.369.59.508.192.128.503.294.885.294v-1l.002-1c.19 0 .275.077.215.038a1.575 1.575 0 0 1-.242-.219c-.238-.25-.538-.644-.868-1.167-.658-1.04-1.37-2.48-1.903-4.018l-.944.328Zm3.74 6.038v1c.136 0 .36-.013.597-.12.265-.12.463-.317.592-.55.208-.374.228-.83.228-1.184h-2c0 .156-.008.246-.015.293-.007.052-.008.004.04-.081a.742.742 0 0 1 .498-.352c.037-.006.06-.006.06-.006v1Zm.417-.854h1v-3.325h-2v3.325h1Zm0-3.325.998-.057c-.056-.976-.357-1.574-.672-2.006-.068-.094-.136-.178-.181-.235a2.213 2.213 0 0 1-.09-.115c-.017-.026.047.06.047.203l-1 .001-1 .001c0 .416.166.724.303.924.063.092.131.177.177.235.052.065.09.113.128.165.112.153.26.387.291.941l.999-.057Zm-.898-2.209h1c0 .29-.229.475-.43.475v-2c-.902 0-1.57.71-1.57 1.525h1Zm.57-.525v1h3.544v-2h-3.544v1Zm3.544 0v1c.034 0 .001.005-.065-.021a.537.537 0 0 1-.223-.172c-.056-.073-.067-.129-.066-.123a.77.77 0 0 1 .01.147h2c0-.342-.043-.828-.352-1.234-.36-.474-.882-.597-1.305-.597v1Zm.656.83h-1v4.486h2V14.59h-1Zm0 4.486h-1c0 .365.073.74.283 1.059.214.326.59.598 1.067.598v-2a.72.72 0 0 1 .603.301c.072.11.047.159.047.042h-1Zm.35.656.001 1c.39 0 .714-.134.995-.325.248-.169.5-.405.761-.668l-.707-.707-.707-.707c-.125.125-.224.22-.305.293a1.668 1.668 0 0 1-.164.134c-.03.02-.024.012.007 0a.372.372 0 0 1 .119-.02v1Zm1.05-.7.747.666c1.741-1.954 2.953-4.894 2.955-4.9l-.924-.382-.923-.383c.005-.012-.272.658-.744 1.546-.478.899-1.127 1.97-1.857 2.788l.746.665Zm2.779-4.616.906.423c.037-.08.053-.081.032-.065a.113.113 0 0 1-.022.013h-.002.003a.384.384 0 0 1 .067-.006v-2c-.478 0-.903.134-1.25.397a2.133 2.133 0 0 0-.64.815l.905.423Zm.984-.635v1h2.253v-2h-2.253v1Zm2.253 0v1c.09 0 .1.013.061-.001a.518.518 0 0 1-.228-.188.527.527 0 0 1-.1-.277c-.002-.046.008-.052-.008-.005l.954.303.952.303c.112-.351.21-.945-.162-1.475-.383-.543-1.003-.66-1.47-.66v1Zm.678.832-.977-.212c-.037.172-.194.545-.493 1.096-.28.518-.635 1.102-.989 1.66a64.272 64.272 0 0 1-.956 1.459l-.313.462a21.817 21.817 0 0 0-.13.194l-.027.047a1.08 1.08 0 0 0-.068.142c-.007.02-.046.117-.06.249l.994.11.994.109c-.015.131-.053.228-.06.247a.982.982 0 0 1-.063.135l-.012.02a.746.746 0 0 0-.005.007c0 .002.002-.002.01-.016l.083-.122.316-.467a62.4 62.4 0 0 0 .986-1.505 31.03 31.03 0 0 0 1.059-1.779c.294-.542.584-1.142.689-1.624l-.977-.212Zm-3.02 5.206-.852-.521c-.089.144-.325.5-.358.935-.037.512.2.911.41 1.193l.8-.6.801-.6a.83.83 0 0 1-.047-.068c-.008-.012-.005-.01.001.005a.538.538 0 0 1 .03.217c-.007.09-.033.14-.026.126a4.877 4.877 0 0 1 .096-.165l-.854-.522Zm0 1.007-.805.592c.181.247.518.572.776.825.299.294.595.586.824.853l.76-.65.759-.651a16.576 16.576 0 0 0-.942-.98c-.328-.321-.506-.5-.565-.58l-.806.591Zm1.555 1.62-.751.66c.478.543.882 1.02 1.186 1.431.32.43.467.705.513.851l.955-.296.955-.297c-.151-.488-.475-.99-.817-1.45a25.289 25.289 0 0 0-1.29-1.56l-.751.66Zm1.903 2.646-.964.266c.02.07.01.075.014.033a.447.447 0 0 1 .105-.226.387.387 0 0 1 .157-.117c.013-.005-.014.007-.1.007v1l.001 1c.455 0 1.055-.11 1.468-.598.437-.515.416-1.15.283-1.631l-.964.266Zm-.787.963v-1H25.71v2h2.254v-1Zm-2.254 0v-1c-.06 0-.074-.009-.09-.017a1.321 1.321 0 0 1-.27-.23c-.16-.16-.337-.362-.605-.66a26.467 26.467 0 0 0-.975-1.032l-.707.707-.708.707c.366.366.657.683.904.958.239.264.468.524.672.73.208.21.452.427.752.586.322.172.66.25 1.027.25v-1Zm-2.648-2.232.696-.719c-1.353-1.308-2.196-1.747-2.948-1.747v2c-.097 0 .241-.088 1.557 1.185l.695-.719Zm-2.252-1.466v-1c-.214 0-.823-.003-1.24.5-.19.233-.269.489-.306.683a3.155 3.155 0 0 0-.045.583h2c0-.14.008-.198.01-.21.002-.01-.015.095-.116.218a.7.7 0 0 1-.332.22c-.052.014-.063.006.029.006v-1Zm-.591.766h-1v2.034h2v-2.034h-1Zm0 2.034h-1c0 .098-.01.084.01.028a.455.455 0 0 1 .164-.215c.045-.03.036-.007-.108.019-.14.025-.356.044-.685.044v2c.724 0 1.41-.067 1.908-.402.655-.44.71-1.11.71-1.474h-1Zm-1.62.876v-1c-1.989 0-4.353-1.223-6.067-3.703l-.823.569-.823.568c2.005 2.9 4.934 4.566 7.714 4.566v-1Zm-6.89-4.134.815-.58c-1.356-1.907-2.211-3.569-2.724-4.809a12.994 12.994 0 0 1-.529-1.51 5.49 5.49 0 0 1-.106-.453c-.022-.123-.022-.166-.022-.153h-1l-1 .001c0 .288.079.692.199 1.131.127.469.325 1.059.61 1.748.57 1.38 1.499 3.174 2.942 5.204l.815-.58Zm-3.566-7.504h1c0-.033.003-.016-.009.026a.526.526 0 0 1-.122.214c-.161.173-.302.125-.104.125v-2c-.458 0-.981.105-1.361.513-.372.4-.404.879-.404 1.122h1Zm.765-.635v1h2.276v-2H8.908v1Z" fill="#000" mask="url(#hb)"/></svg><svg fill="none" viewBox="0 0 39 39" id="whatsapp" xmlns="http://www.w3.org/2000/svg"><path d="M19.508.5V0v.5ZM32.94 6.07l.354-.353-.354.353Zm5.56 13.437h.5-.5ZM19.501 38.5v.5-.5Zm-.008 0v.5-.5Zm-9.67-2.648.254-.43-.255.43Zm-.694-.41.255-.43-.18-.107-.202.053.127.483Zm-7.191 1.885-.483-.132-.228.836.837-.22-.127-.484Zm1.918-7.009.483.132.058-.211-.117-.187-.424.266Zm-.45-.718.423-.266-.424.266ZM.5 19.49H0h.5ZM11.273 8.715v-.5.5Zm-1.55.715-.365-.341.366.34ZM7.69 14.198h-.5.5Zm2.373 5.913.398-.303-.398.303Zm9.93 8.631.195-.46-.196.46Zm3.312 1.204.149-.477-.15.477Zm3.66.227-.072-.495.073.495Zm3.924-2.718.47.17-.47-.17Zm.339-2.718.427-.259-.427.26Zm-1.115-.668.221-.448-.22.448Zm-3.97-1.859.168-.47-.168.47Zm-1.308.285-.414-.28.414.28Zm-1.84 2.242.373.333-.374-.333Zm-1.26.143.221-.449-.22.449Zm-4.674-2.837-.33.376.33-.376Zm-3.233-3.96-.43.255.43-.255Zm.255-1.166.35.357-.35-.357Zm.872-1.002.377.328-.377-.328Zm.581-.953.446.226-.446-.226Zm-.049-1.002-.446.226.446-.226Zm-1.79-4.244.46-.195-.46.195Zm-1.308-.98-.025.499.025-.5ZM19.508.5V1a18.374 18.374 0 0 1 13.079 5.424l.353-.354.354-.353A19.374 19.374 0 0 0 19.508 0v.5ZM32.94 6.07l-.353.354A18.374 18.374 0 0 1 38 19.507h1a19.374 19.374 0 0 0-5.706-13.79l-.354.353Zm5.56 13.437H38C37.996 29.703 29.697 38 19.501 38v1C30.249 39 38.996 30.256 39 19.507h-.5ZM19.501 38.5V38h-.008v1h.008v-.5Zm-.008 0V38a18.478 18.478 0 0 1-9.416-2.578l-.255.43-.255.43A19.48 19.48 0 0 0 19.493 39v-.5Zm-9.67-2.648.254-.43-.693-.41-.255.43-.255.43.693.41.255-.43Zm-.694-.41-.127-.484-7.191 1.886.127.483.126.484 7.192-1.886-.127-.484Zm-7.191 1.885.482.132 1.919-7.009-.483-.132-.482-.132-1.919 7.01.482.131Zm1.918-7.009.424-.266-.451-.718-.424.266-.423.265.451.72.423-.267Zm-.45-.718.423-.267A18.445 18.445 0 0 1 1 19.491H0a19.445 19.445 0 0 0 2.982 10.375l.423-.266ZM.5 19.49H1C1.004 9.296 9.304 1.001 19.508 1V0C8.752 0 .004 8.743 0 19.491h.5ZM11.273 8.715v-.5c-.499 0-1.271.182-1.915.874l.366.34.365.341c.422-.452.909-.555 1.184-.555v-.5Zm-1.55.715-.365-.341c-.534.574-2.168 2.085-2.169 5.11h1c0-2.602 1.37-3.858 1.9-4.429l-.365-.34ZM7.69 14.198h-.5c0 1.521.56 2.987 1.134 4.098.577 1.118 1.191 1.92 1.342 2.118l.398-.303.397-.303c-.14-.184-.712-.931-1.249-1.97-.54-1.048-1.022-2.348-1.022-3.64h-.5Zm2.373 5.913-.397.303c.264.347 4.153 6.25 10.13 8.788l.196-.46.196-.46c-5.683-2.413-9.41-8.057-9.727-8.474l-.398.303Zm9.93 8.631-.196.46a34.25 34.25 0 0 0 3.359 1.222l.149-.478.149-.477a33.284 33.284 0 0 1-3.266-1.187l-.196.46Zm3.312 1.204-.15.477c1.49.466 2.841.398 3.884.245l-.073-.495-.073-.495c-.96.141-2.145.195-3.44-.209l-.148.477Zm3.66.227.074.495c.65-.096 1.576-.478 2.392-.992.802-.506 1.626-1.22 1.928-2.05l-.47-.17-.47-.171c-.183.504-.763 1.067-1.521 1.545-.746.47-1.539.78-2.005.848l.073.495Zm3.924-2.718.47.17a7.632 7.632 0 0 0 .433-1.896 4.26 4.26 0 0 0 .01-.693c-.013-.169-.045-.39-.147-.558l-.427.26-.428.259c-.03-.05-.007-.038.005.118.01.128.01.306-.01.527a6.636 6.636 0 0 1-.376 1.643l.47.17Zm.339-2.718.427-.26c-.148-.241-.387-.39-.584-.496-.196-.106-.475-.231-.737-.36l-.22.448-.222.449c.32.157.525.246.704.343.179.097.206.14.204.136l.428-.26Zm-1.115-.668.221-.448c-.293-.145-1.154-.563-2.01-.969-.839-.398-1.716-.806-2.013-.913l-.168.471-.17.47c.238.086 1.056.464 1.923.876.851.404 1.708.82 1.997.962l.22-.449Zm-3.97-1.859.168-.47c-.251-.09-.588-.209-.932-.17-.399.044-.709.277-.958.645l.414.28.414.28c.138-.203.216-.208.24-.211.08-.01.204.016.485.117l.169-.471Zm-1.308.285-.414-.28c-.365.54-1.456 1.802-1.8 2.19l.373.332.374.333c.333-.375 1.472-1.69 1.881-2.295l-.414-.28Zm-1.84 2.242-.374-.332c-.121.136-.187.153-.225.157-.058.007-.182-.004-.44-.13l-.22.448-.222.448c.324.16.659.268 1 .227.363-.043.635-.24.854-.485l-.374-.333Zm-1.26.143.221-.449c-.63-.31-2.41-.873-4.565-2.764l-.33.376-.33.376c2.286 2.004 4.251 2.648 4.784 2.91l.22-.45Zm-4.674-2.837.33-.376c-1.668-1.463-2.802-3.281-3.133-3.839l-.43.255-.43.255c.348.587 1.546 2.513 3.334 4.08l.33-.375Zm-3.233-3.96.43-.255a.528.528 0 0 1-.078-.192.127.127 0 0 1 .007-.067c.024-.064.087-.139.246-.295l-.35-.357-.35-.357c-.131.129-.366.351-.481.656-.134.354-.084.733.146 1.122l.43-.255Zm.255-1.166.35.357c.279-.273.641-.735.9-1.03l-.378-.329-.377-.328c-.323.371-.6.734-.845.973l.35.357Zm.872-1.002.377.328c.34-.39.468-.696.65-1.055l-.446-.226-.446-.227c-.205.404-.272.576-.512.852l.377.328Zm.581-.953.446.226c.299-.588.128-1.106-.049-1.455l-.446.227-.446.226c.06.117.092.21.1.293a.435.435 0 0 1-.05.257l.445.226Zm-.049-1.002.446-.226a71.227 71.227 0 0 1-.753-1.768c-.368-.88-.78-1.872-1.023-2.445l-.46.195-.461.195c.241.57.651 1.556 1.021 2.44.363.867.7 1.67.784 1.835l.446-.226Zm-1.79-4.244.46-.195c-.259-.611-.564-.982-.947-1.16-.341-.159-.74-.122-.797-.125l-.024.5-.025.499c.3.014.32-.016.425.033.063.03.234.14.447.643l.46-.195Zm-1.308-.98.024-.5c-.351-.017-.75-.021-1.139-.021v1a23 23 0 0 1 1.09.02l.025-.5Z" fill="#000"/></svg><svg fill="none" viewBox="0 0 39 39" id="youtube" xmlns="http://www.w3.org/2000/svg"><path d="M19.5.5V0v.5Zm19 19h.5-.5Zm-19 19v.5-.5Zm-19-19H0h.5Zm19-6.967v-.5.5Zm-7.918.435.132.482-.132-.482Zm-1.792 1.84.484.126-.484-.126Zm-.423 5.008h-.5.5Zm.423 5.01.484-.127-.484.126Zm1.792 1.839.133-.482-.133.482Zm7.918.435v.5-.5Zm7.918-.435-.132-.482.132.482Zm1.792-1.84-.484-.126.484.126Zm.424-5.009h.5-.5Zm-.424-5.008-.484.126.484-.126Zm-1.792-1.84-.133.482.133-.482ZM19.5.5V1C29.717 1 38 9.283 38 19.5h1C39 8.73 30.27 0 19.5 0v.5Zm19 19H38C38 29.717 29.717 38 19.5 38v1C30.27 39 39 30.27 39 19.5h-.5Zm-19 19V38C9.283 38 1 29.717 1 19.5H0C0 30.27 8.73 39 19.5 39v-.5Zm-19-19H1C1 9.283 9.283 1 19.5 1V0C8.73 0 0 8.73 0 19.5h.5Zm19-6.967v-.5c-.02 0-1.611 0-3.397.055a63.37 63.37 0 0 0-2.661.13c-.81.061-1.546.145-1.993.268l.133.482.133.482c.34-.094.984-.173 1.801-.234.803-.06 1.732-.101 2.618-.128 1.77-.055 3.35-.055 3.366-.055v-.5Zm-7.918.435-.132-.482a3.073 3.073 0 0 0-2.144 2.196l.484.126.484.126a2.074 2.074 0 0 1 1.44-1.484l-.132-.482Zm-1.792 1.84-.484-.127c-.226.867-.333 2.167-.385 3.214a44.283 44.283 0 0 0-.054 1.91v.011a364.583 364.583 0 0 0 1 0v-.008a11.064 11.064 0 0 1 .001-.136 43.29 43.29 0 0 1 .051-1.726c.053-1.051.158-2.256.355-3.012l-.484-.126Zm-.423 5.008h-.5c0 .024 0 .883.054 1.94.053 1.044.16 2.333.385 3.195l.484-.126.484-.126c-.196-.751-.3-1.946-.354-2.994a41.579 41.579 0 0 1-.053-1.889h-.5Zm.423 5.01-.484.125a3.074 3.074 0 0 0 2.144 2.196l.132-.482.132-.482a2.074 2.074 0 0 1-1.44-1.484l-.484.126Zm1.792 1.839-.133.482c.447.123 1.183.207 1.993.267.823.062 1.769.103 2.661.13 1.786.055 3.377.056 3.397.056v-1c-.016 0-1.596 0-3.366-.055a61.513 61.513 0 0 1-2.617-.128c-.818-.061-1.461-.14-1.802-.234l-.133.482Zm7.918.435v.5h.073a86.33 86.33 0 0 0 .947-.007c.621-.007 1.466-.02 2.361-.048a62.755 62.755 0 0 0 2.67-.13c.813-.06 1.551-.145 2-.268l-.133-.482-.133-.482c-.342.094-.988.173-1.808.235-.806.06-1.739.1-2.626.128a123.094 123.094 0 0 1-3.28.053H19.5v.5Zm7.918-.435.132.482a3.074 3.074 0 0 0 2.144-2.196l-.484-.126-.484-.126a2.074 2.074 0 0 1-1.44 1.484l.132.482Zm1.792-1.84.484.127c.225-.863.332-2.152.385-3.196a42.68 42.68 0 0 0 .055-1.94h-1c0 .016 0 .856-.054 1.89-.053 1.046-.158 2.242-.354 2.993l.484.126Zm.424-5.009h.5v-.04l-.001-.113c0-.097-.003-.237-.006-.41a44.07 44.07 0 0 0-.047-1.358c-.053-1.047-.16-2.347-.386-3.214l-.484.127-.484.126c.197.756.302 1.96.355 3.012a43.361 43.361 0 0 1 .053 1.834v.036h.5Zm-.424-5.008.484-.126a3.073 3.073 0 0 0-2.144-2.196l-.132.482-.132.482c.694.19 1.25.756 1.44 1.484l.484-.126Zm-1.792-1.84.133-.482c-.449-.124-1.187-.207-2-.268a62.918 62.918 0 0 0-2.67-.13 124.094 124.094 0 0 0-3.308-.055H19.5l-.001.5v.5h.07a84.771 84.771 0 0 1 .94.007c.616.007 1.454.02 2.341.047.888.027 1.82.068 2.626.128.82.061 1.466.14 1.808.235l.133-.482Z" fill="#000"/><path d="M17.6 23.3v-6.333l5.066 3.167L17.6 23.3Z" stroke="#000"/></svg></svg>